<svg width="32" height="32" viewBox="0 0 32 32" fill="none" xmlns="http://www.w3.org/2000/svg">
<rect width="32" height="32" rx="16" fill="#F2F4F7"/>
<g opacity="0.08">
<rect x="0.25" y="0.25" width="31.5" height="31.5" rx="15.75" stroke="#101828" stroke-width="0.5"/>
</g>
<path d="M8.28347 21H6.31472L9.89924 10.8182H12.1762L15.7657 21H13.797L11.0775 12.9062H10.998L8.28347 21ZM8.3481 17.0078H13.7174V18.4893H8.3481V17.0078ZM25.3435 14.2536H23.4841C23.4311 13.9486 23.3333 13.6785 23.1908 13.4432C23.0483 13.2045 22.8709 13.0024 22.6588 12.8366C22.4467 12.6709 22.2048 12.5466 21.933 12.4638C21.6645 12.3776 21.3745 12.3345 21.0629 12.3345C20.5094 12.3345 20.0189 12.4737 19.5914 12.7521C19.1638 13.0272 18.829 13.4316 18.5871 13.9652C18.3451 14.4955 18.2242 15.1435 18.2242 15.9091C18.2242 16.688 18.3451 17.3442 18.5871 17.8778C18.8324 18.4081 19.1671 18.8092 19.5914 19.081C20.0189 19.3494 20.5078 19.4837 21.058 19.4837C21.3629 19.4837 21.6479 19.4439 21.9131 19.3643C22.1816 19.2815 22.4218 19.1605 22.634 19.0014C22.8494 18.8423 23.03 18.6468 23.1759 18.4148C23.325 18.1828 23.4278 17.9176 23.4841 17.6193L25.3435 17.6293C25.2739 18.1132 25.1231 18.5672 24.8911 18.9915C24.6624 19.4157 24.3624 19.7902 23.9912 20.1151C23.62 20.4366 23.1858 20.6884 22.6887 20.8707C22.1915 21.0497 21.6396 21.1392 21.0331 21.1392C20.1382 21.1392 19.3395 20.9321 18.6368 20.5178C17.9342 20.1035 17.3807 19.5052 16.9763 18.723C16.5719 17.9408 16.3698 17.0028 16.3698 15.9091C16.3698 14.812 16.5736 13.8741 16.9813 13.0952C17.3889 12.313 17.9441 11.7147 18.6468 11.3004C19.3494 10.8861 20.1449 10.679 21.0331 10.679C21.5999 10.679 22.1269 10.7585 22.6141 10.9176C23.1013 11.0767 23.5355 11.3104 23.9166 11.6186C24.2978 11.9235 24.611 12.2981 24.8563 12.7422C25.1048 13.183 25.2673 13.6868 25.3435 14.2536Z" fill="#475467"/>
</svg>
