<svg width="20" height="20" viewBox="0 0 20 20" fill="none" xmlns="http://www.w3.org/2000/svg">
<g clip-path="url(#clip0_1_36910)">
<path d="M10 20C15.5228 20 20 15.5228 20 10C20 4.47715 15.5228 0 10 0C4.47715 0 0 4.47715 0 10C0 15.5228 4.47715 20 10 20Z" fill="#D80027"/>
<path d="M5.47278 6.08456L6.33606 8.7408H9.12903L6.87122 10.3853L7.7345 13.0416L5.47278 11.401L3.21106 13.0416L4.07825 10.3853L1.81653 8.7408H4.6095L5.47278 6.08456Z" fill="#FFDA44"/>
<path d="M11.8552 15.4872L11.195 14.6747L10.2184 15.0536L10.7849 14.1747L10.1247 13.3583L11.1364 13.6278L11.7067 12.7489L11.7614 13.7958L12.777 14.0653L11.7966 14.4403L11.8552 15.4872Z" fill="#FFDA44"/>
<path d="M13.1682 13.1044L13.4807 12.1044L12.6252 11.4989L13.6721 11.4833L13.9806 10.4833L14.3205 11.4755L15.3674 11.4638L14.5275 12.0888L14.8635 13.081L14.008 12.4755L13.1682 13.1044Z" fill="#FFDA44"/>
<path d="M14.9378 7.33885L14.4769 8.28026L15.2269 9.01073L14.1917 8.86229L13.7308 9.79979L13.5511 8.76854L12.512 8.6201L13.4417 8.13182L13.262 7.09666L14.012 7.82713L14.9378 7.33885Z" fill="#FFDA44"/>
<path d="M11.8826 4.48756L11.8045 5.53053L12.7772 5.92506L11.7576 6.17506L11.6834 7.22193L11.1326 6.33131L10.1131 6.58131L10.7889 5.78053L10.2342 4.89381L11.2068 5.28834L11.8826 4.48756Z" fill="#FFDA44"/>
</g>
<defs>
<clipPath id="clip0_1_36910">
<rect width="20" height="20" fill="white"/>
</clipPath>
</defs>
</svg>
