<svg width="20" height="20" viewBox="0 0 20 20" fill="none" xmlns="http://www.w3.org/2000/svg">
<g clip-path="url(#clip0_4049_1704)">
<path d="M8.74996 1.66896C8.18742 1.67658 7.84971 1.70915 7.57664 1.84828C7.26304 2.00807 7.00807 2.26304 6.84828 2.57664C6.70915 2.84971 6.67658 3.18742 6.66896 3.74996M16.25 1.66896C16.8125 1.67658 17.1502 1.70915 17.4233 1.84828C17.7369 2.00807 17.9918 2.26304 18.1516 2.57664C18.2908 2.84971 18.3233 3.18741 18.331 3.74995M18.331 11.25C18.3233 11.8125 18.2908 12.1502 18.1516 12.4233C17.9918 12.7369 17.7369 12.9918 17.4233 13.1516C17.1502 13.2908 16.8125 13.3233 16.25 13.331M18.3333 6.66662V8.33329M11.6667 1.66663H13.3333M4.33329 18.3333H10.6666C11.6 18.3333 12.0668 18.3333 12.4233 18.1516C12.7369 17.9918 12.9918 17.7369 13.1516 17.4233C13.3333 17.0668 13.3333 16.6 13.3333 15.6666V9.33329C13.3333 8.39987 13.3333 7.93316 13.1516 7.57664C12.9918 7.26304 12.7369 7.00807 12.4233 6.84828C12.0668 6.66663 11.6 6.66663 10.6666 6.66663H4.33329C3.39987 6.66663 2.93316 6.66663 2.57664 6.84828C2.26304 7.00807 2.00807 7.26304 1.84828 7.57664C1.66663 7.93316 1.66663 8.39987 1.66663 9.33329V15.6666C1.66663 16.6 1.66663 17.0668 1.84828 17.4233C2.00807 17.7369 2.26304 17.9918 2.57664 18.1516C2.93316 18.3333 3.39987 18.3333 4.33329 18.3333Z" stroke="#D8D8D8" stroke-width="1.66667" stroke-linecap="round" stroke-linejoin="round"/>
</g>
<defs>
<clipPath id="clip0_4049_1704">
<rect width="20" height="20" fill="white"/>
</clipPath>
</defs>
</svg>
