<svg width="20" height="20" viewBox="0 0 20 20" fill="none" xmlns="http://www.w3.org/2000/svg">
<g clip-path="url(#clip0_4105_2655)">
<path d="M13.3334 6.66666V4.33333C13.3334 3.39991 13.3334 2.9332 13.1518 2.57668C12.992 2.26308 12.737 2.00811 12.4234 1.84832C12.0669 1.66666 11.6002 1.66666 10.6667 1.66666H4.33341C3.39999 1.66666 2.93328 1.66666 2.57676 1.84832C2.26316 2.00811 2.00819 2.26308 1.8484 2.57668C1.66675 2.9332 1.66675 3.39991 1.66675 4.33333V10.6667C1.66675 11.6001 1.66675 12.0668 1.8484 12.4233C2.00819 12.7369 2.26316 12.9919 2.57676 13.1517C2.93328 13.3333 3.39999 13.3333 4.33342 13.3333H6.66675M9.33341 18.3333H15.6667C16.6002 18.3333 17.0669 18.3333 17.4234 18.1517C17.737 17.9919 17.992 17.7369 18.1518 17.4233C18.3334 17.0668 18.3334 16.6001 18.3334 15.6667V9.33333C18.3334 8.39991 18.3334 7.9332 18.1518 7.57668C17.992 7.26308 17.737 7.00811 17.4234 6.84832C17.0669 6.66666 16.6002 6.66666 15.6667 6.66666H9.33341C8.39999 6.66666 7.93328 6.66666 7.57676 6.84832C7.26316 7.00811 7.00819 7.26308 6.8484 7.57668C6.66675 7.9332 6.66675 8.39991 6.66675 9.33333V15.6667C6.66675 16.6001 6.66675 17.0668 6.8484 17.4233C7.00819 17.7369 7.26316 17.9919 7.57676 18.1517C7.93328 18.3333 8.39999 18.3333 9.33341 18.3333Z" stroke="#475467" stroke-width="1.66667" stroke-linecap="round" stroke-linejoin="round"/>
</g>
<defs>
<clipPath id="clip0_4105_2655">
<rect width="20" height="20" fill="white"/>
</clipPath>
</defs>
</svg>
