<svg width="20" height="20" viewBox="0 0 20 20" fill="none" xmlns="http://www.w3.org/2000/svg">
<g clip-path="url(#clip0_1_36880)">
<path d="M20 9.99989C20 11.1865 19.7933 12.325 19.4137 13.3812C18.4944 15.9404 16.5613 18.0161 14.0988 19.1238C12.848 19.6867 11.4607 19.9998 10.0001 19.9998C8.53951 19.9998 7.1522 19.6867 5.90139 19.1238C3.43888 18.0161 1.50577 15.9404 0.586515 13.3812C0.206962 12.325 0.000213623 11.1865 0.000213623 9.99989C0.000213623 8.81301 0.206962 7.67436 0.58675 6.61813C1.50601 4.05938 3.43888 1.98392 5.90139 0.87594C7.15219 0.313287 8.53951 0 10.0001 0C11.4607 0 12.848 0.313287 14.0988 0.87594C16.5613 1.98392 18.4942 4.05938 19.4135 6.61813C19.7933 7.67436 20 8.813 20 9.99989Z" fill="#16479A"/>
<path d="M10.0022 2.90855L10.2368 3.59202L10.9594 3.60397L10.3818 4.03831L10.5939 4.72927L10.0022 4.31413L9.41078 4.72927L9.62268 4.03831L9.04504 3.60397L9.76762 3.59202L10.0022 2.90855Z" fill="#FCCA26"/>
<path d="M3.96363 9.0146L4.19824 9.69831L4.92081 9.71025L4.34318 10.1446L4.55508 10.8353L3.96363 10.4202L3.37194 10.8353L3.58407 10.1446L3.00644 9.71025L3.72901 9.69831L3.96363 9.0146Z" fill="#FCCA26"/>
<path d="M4.74613 5.93723L4.98074 6.6207L5.70331 6.63264L5.12568 7.06698L5.33758 7.75794L4.74613 7.3428L4.15444 7.75794L4.36634 7.06698L3.78894 6.63264L4.51152 6.6207L4.74613 5.93723Z" fill="#FCCA26"/>
<path d="M6.96607 3.75522L7.20068 4.43869L7.92325 4.45063L7.34561 4.88497L7.55752 5.57593L6.96607 5.16079L6.37438 5.57593L6.58652 4.88497L6.00888 4.45063L6.73145 4.43869L6.96607 3.75522Z" fill="#FCCA26"/>
<path d="M15.2466 5.93723L15.012 6.6207L14.2894 6.63264L14.8671 7.06698L14.6552 7.75794L15.2466 7.3428L15.8383 7.75794L15.6262 7.06698L16.2038 6.63264L15.4812 6.6207L15.2466 5.93723Z" fill="#FCCA26"/>
<path d="M4.74613 12.0341L4.98074 12.7176L5.70331 12.7296L5.12568 13.1639L5.33758 13.8549L4.74613 13.4397L4.15444 13.8549L4.36634 13.1639L3.78894 12.7296L4.51152 12.7176L4.74613 12.0341Z" fill="#FCCA26"/>
<path d="M15.2466 12.0341L15.012 12.7176L14.2894 12.7296L14.8671 13.1639L14.6552 13.8549L15.2466 13.4397L15.8383 13.8549L15.6262 13.1639L16.2038 12.7296L15.4812 12.7176L15.2466 12.0341Z" fill="#FCCA26"/>
<path d="M13.0267 3.75522L12.7921 4.43869L12.0695 4.45063L12.6469 4.88497L12.435 5.57593L13.0267 5.16079L13.6181 5.57593L13.4062 4.88497L13.9839 4.45063L13.2613 4.43869L13.0267 3.75522Z" fill="#FCCA26"/>
<path d="M6.96607 14.2162L7.20068 14.8996L7.92325 14.9116L7.34561 15.3459L7.55752 16.0369L6.96607 15.6217L6.37438 16.0369L6.58652 15.3459L6.00888 14.9116L6.73145 14.8996L6.96607 14.2162Z" fill="#FCCA26"/>
<path d="M13.0267 14.2162L12.7921 14.8996L12.0695 14.9116L12.6469 15.3459L12.435 16.0369L13.0267 15.6217L13.6181 16.0369L13.4062 15.3459L13.9839 14.9116L13.2613 14.8996L13.0267 14.2162Z" fill="#FCCA26"/>
<path d="M16.0825 9.0146L16.3171 9.69831L17.0397 9.71025L16.4623 10.1446L16.6742 10.8353L16.0825 10.4202L15.4911 10.8353L15.703 10.1446L15.1253 9.71025L15.8479 9.69831L16.0825 9.0146Z" fill="#FCCA26"/>
<path d="M10.0022 15.0537L10.2368 15.7372L10.9594 15.7491L10.3818 16.1834L10.5939 16.8744L10.0022 16.4593L9.41078 16.8744L9.62268 16.1834L9.04504 15.7491L9.76762 15.7372L10.0022 15.0537Z" fill="#FCCA26"/>
</g>
<defs>
<clipPath id="clip0_1_36880">
<rect width="20" height="20" fill="white"/>
</clipPath>
</defs>
</svg>
