<svg width="20" height="22" viewBox="0 0 20 22" fill="none" xmlns="http://www.w3.org/2000/svg">
<path fill-rule="evenodd" clip-rule="evenodd" d="M0.847004 1.37315C0.749506 1.58715 0.695801 1.84936 0.695801 2.15437V19.8471C0.695801 20.1528 0.749499 20.4151 0.847824 20.629L10.791 11.0005L0.847004 1.37315ZM1.42208 21.2043C1.79059 21.3571 2.27147 21.3087 2.79531 21.0207L14.4926 14.585L11.3751 11.5662L1.42208 21.2043ZM15.2387 14.1755L18.9081 12.1567C20.0624 11.5207 20.0624 10.4815 18.9081 9.84633L15.2371 7.82649L11.9593 11.0004L15.2387 14.1755ZM14.4918 7.41649L2.79531 0.981566C2.27064 0.693109 1.79059 0.644974 1.42208 0.797886L11.3751 10.4347L14.4918 7.41649Z" fill="white"/>
</svg>
