<svg width="27" height="26" viewBox="0 0 27 26" fill="none" xmlns="http://www.w3.org/2000/svg">
<path d="M10.7083 8.01576H15.6666C17.1163 8.01576 18.2916 9.19101 18.2916 10.6408C18.2916 12.0905 17.1163 13.2658 15.6666 13.2658H10.7083H16.2499C17.6997 13.2658 18.8749 14.441 18.8749 15.8908C18.8749 17.3405 17.6997 18.5158 16.2499 18.5158H10.7083M10.7083 8.01576H8.95825M10.7083 8.01576V18.5158M10.7083 18.5158H8.95825M11.2916 6.26576V8.01576M11.2916 18.5158V20.2658M14.7916 6.26576V8.01576M14.7916 18.5158V20.2658M25.2916 13.2658C25.2916 19.7091 20.0682 24.9324 13.6249 24.9324C7.1816 24.9324 1.95825 19.7091 1.95825 13.2658C1.95825 6.82243 7.1816 1.59909 13.6249 1.59909C20.0682 1.59909 25.2916 6.82243 25.2916 13.2658Z" stroke="#8D7F6D" stroke-width="2" stroke-linecap="round" stroke-linejoin="round"/>
</svg>
