<svg width="26" height="26" viewBox="0 0 26 26" fill="none" xmlns="http://www.w3.org/2000/svg">
<path d="M9.78389 9.92475L4.87534 5.0162M4.87534 21.5154L9.82088 16.5698M16.4628 16.6068L21.3714 21.5154M21.3714 5.0162L16.4251 9.96248M24.7916 13.2658C24.7916 19.7091 19.5682 24.9324 13.1249 24.9324C6.6816 24.9324 1.45825 19.7091 1.45825 13.2658C1.45825 6.82243 6.6816 1.59909 13.1249 1.59909C19.5682 1.59909 24.7916 6.82243 24.7916 13.2658ZM17.7916 13.2658C17.7916 15.8431 15.7022 17.9324 13.1249 17.9324C10.5476 17.9324 8.45825 15.8431 8.45825 13.2658C8.45825 10.6884 10.5476 8.59909 13.1249 8.59909C15.7022 8.59909 17.7916 10.6884 17.7916 13.2658Z" stroke="#8D7F6D" stroke-width="2" stroke-linecap="round" stroke-linejoin="round"/>
</svg>
