<svg width="27" height="24" viewBox="0 0 27 24" fill="none" xmlns="http://www.w3.org/2000/svg">
<path d="M14.5416 4.09908C14.5416 5.38774 11.6687 6.43241 8.12492 6.43241C4.58109 6.43241 1.70825 5.38774 1.70825 4.09908M14.5416 4.09908C14.5416 2.81042 11.6687 1.76575 8.12492 1.76575C4.58109 1.76575 1.70825 2.81042 1.70825 4.09908M14.5416 4.09908V5.84908M1.70825 4.09908V18.0991C1.70825 19.3877 4.58109 20.4324 8.12492 20.4324M8.12492 11.0991C7.92828 11.0991 7.73371 11.0959 7.54158 11.0896C4.27113 10.9824 1.70825 9.98291 1.70825 8.76575M8.12492 15.7657C4.58109 15.7657 1.70825 14.7211 1.70825 13.4324M25.0416 11.6824C25.0416 12.9711 22.1687 14.0157 18.6249 14.0157C15.0811 14.0157 12.2083 12.9711 12.2083 11.6824M25.0416 11.6824C25.0416 10.3937 22.1687 9.34908 18.6249 9.34908C15.0811 9.34908 12.2083 10.3937 12.2083 11.6824M25.0416 11.6824V20.4324C25.0416 21.7211 22.1687 22.7657 18.6249 22.7657C15.0811 22.7657 12.2083 21.7211 12.2083 20.4324V11.6824M25.0416 16.0574C25.0416 17.3461 22.1687 18.3907 18.6249 18.3907C15.0811 18.3907 12.2083 17.3461 12.2083 16.0574" stroke="#8D7F6D" stroke-width="2" stroke-linecap="round" stroke-linejoin="round"/>
</svg>
