<svg width="25" height="24" viewBox="0 0 25 24" fill="none" xmlns="http://www.w3.org/2000/svg">
<path d="M12.038 2.29461C12.3069 1.74984 12.4414 1.47746 12.6239 1.39044C12.7827 1.31472 12.9672 1.31472 13.126 1.39044C13.3085 1.47746 13.443 1.74984 13.7119 2.29461L16.263 7.4629C16.3424 7.62373 16.3821 7.70414 16.4401 7.76658C16.4914 7.82185 16.553 7.86664 16.6215 7.89846C16.6987 7.9344 16.7875 7.94737 16.9649 7.97331L22.6714 8.80739C23.2723 8.89523 23.5728 8.93914 23.7118 9.08591C23.8328 9.21361 23.8897 9.38908 23.8667 9.56347C23.8402 9.76391 23.6227 9.97578 23.1876 10.3995L19.0599 14.4199C18.9313 14.5452 18.8669 14.6079 18.8254 14.6824C18.7887 14.7485 18.7651 14.821 18.756 14.896C18.7457 14.9807 18.7609 15.0692 18.7913 15.2463L19.7652 20.9249C19.8679 21.5238 19.9193 21.8233 19.8228 22.001C19.7388 22.1556 19.5895 22.2641 19.4165 22.2961C19.2176 22.333 18.9487 22.1916 18.4109 21.9087L13.3094 19.2259C13.1504 19.1423 13.0709 19.1005 12.9872 19.0841C12.9131 19.0695 12.8368 19.0695 12.7627 19.0841C12.6789 19.1005 12.5995 19.1423 12.4405 19.2259L7.339 21.9087C6.80115 22.1916 6.53223 22.333 6.33339 22.2961C6.16038 22.2641 6.01109 22.1556 5.92711 22.001C5.83059 21.8233 5.88195 21.5238 5.98467 20.9249L6.95862 15.2463C6.98898 15.0692 7.00416 14.9807 6.99389 14.896C6.9848 14.821 6.96122 14.7485 6.92446 14.6824C6.88294 14.6079 6.81861 14.5452 6.68993 14.4199L2.56224 10.3995C2.12719 9.97578 1.90967 9.76391 1.8832 9.56347C1.86017 9.38908 1.91706 9.21361 2.03804 9.08591C2.17709 8.93914 2.47755 8.89523 3.07847 8.80739L8.78495 7.97331C8.96241 7.94737 9.05115 7.9344 9.12842 7.89846C9.19684 7.86664 9.25844 7.82185 9.3098 7.76658C9.36781 7.70414 9.4075 7.62373 9.48689 7.4629L12.038 2.29461Z" stroke="#8D7F6D" stroke-width="2" stroke-linecap="round" stroke-linejoin="round"/>
</svg>
