<svg width="617" height="185" viewBox="0 0 617 185" fill="none" xmlns="http://www.w3.org/2000/svg">
<line x1="1.5" y1="10.5" x2="615.5" y2="10.5" stroke="#F2F4F7" stroke-linecap="round"/>
<line x1="1.5" y1="42" x2="615.5" y2="42" stroke="#F2F4F7" stroke-linecap="round"/>
<line x1="1.5" y1="71" x2="615.5" y2="71" stroke="#F2F4F7" stroke-linecap="round"/>
<line x1="1.5" y1="100" x2="615.5" y2="100" stroke="#F2F4F7" stroke-linecap="round"/>
<line x1="1.5" y1="129" x2="615.5" y2="129" stroke="#F2F4F7" stroke-linecap="round"/>
<line x1="1.5" y1="158" x2="615.5" y2="158" stroke="#F2F4F7" stroke-linecap="round"/>
<path d="M29.7493 171.273H30.8061V177.511C30.8061 178.068 30.7038 178.541 30.4993 178.93C30.2947 179.32 30.0064 179.615 29.6342 179.817C29.2621 180.018 28.8232 180.119 28.3175 180.119C27.8402 180.119 27.4155 180.033 27.0433 179.859C26.6712 179.683 26.3786 179.433 26.1655 179.109C25.9524 178.786 25.8459 178.401 25.8459 177.955H26.8857C26.8857 178.202 26.9467 178.418 27.0689 178.602C27.1939 178.784 27.3643 178.926 27.5803 179.028C27.7962 179.131 28.0419 179.182 28.3175 179.182C28.6214 179.182 28.88 179.118 29.093 178.99C29.3061 178.862 29.468 178.675 29.5788 178.428C29.6925 178.178 29.7493 177.872 29.7493 177.511V171.273ZM34.7138 180.153C34.299 180.153 33.9226 180.075 33.5845 179.919C33.2464 179.76 32.978 179.531 32.7791 179.233C32.5803 178.932 32.4808 178.568 32.4808 178.142C32.4808 177.767 32.5547 177.463 32.7024 177.23C32.8501 176.994 33.0476 176.81 33.2947 176.676C33.5419 176.543 33.8146 176.443 34.1129 176.378C34.4141 176.31 34.7166 176.256 35.0206 176.216C35.4183 176.165 35.7408 176.126 35.9879 176.101C36.2379 176.072 36.4197 176.026 36.5334 175.96C36.6499 175.895 36.7081 175.781 36.7081 175.619V175.585C36.7081 175.165 36.593 174.838 36.3629 174.605C36.1357 174.372 35.7905 174.256 35.3274 174.256C34.8473 174.256 34.4709 174.361 34.1982 174.571C33.9254 174.781 33.7337 175.006 33.6229 175.244L32.6683 174.903C32.8388 174.506 33.0661 174.196 33.3501 173.974C33.6371 173.75 33.9496 173.594 34.2876 173.506C34.6286 173.415 34.9638 173.369 35.2933 173.369C35.5036 173.369 35.745 173.395 36.0178 173.446C36.2933 173.494 36.5589 173.595 36.8146 173.749C37.0732 173.902 37.2876 174.134 37.4581 174.443C37.6286 174.753 37.7138 175.168 37.7138 175.688V180H36.7081V179.114H36.657C36.5888 179.256 36.4751 179.408 36.3161 179.57C36.157 179.732 35.9453 179.869 35.6811 179.983C35.4169 180.097 35.0945 180.153 34.7138 180.153ZM34.8672 179.25C35.2649 179.25 35.6001 179.172 35.8729 179.016C36.1484 178.859 36.3558 178.658 36.495 178.411C36.6371 178.163 36.7081 177.903 36.7081 177.631V176.71C36.6655 176.761 36.5717 176.808 36.4268 176.851C36.2848 176.891 36.12 176.926 35.9325 176.957C35.7479 176.986 35.5675 177.011 35.3913 177.034C35.218 177.054 35.0774 177.071 34.9695 177.085C34.7081 177.119 34.4638 177.175 34.2365 177.251C34.0121 177.325 33.8303 177.437 33.6911 177.588C33.5547 177.736 33.4865 177.937 33.4865 178.193C33.4865 178.543 33.6158 178.807 33.8743 178.986C34.1357 179.162 34.4666 179.25 34.8672 179.25ZM40.555 176.062V180H39.5494V173.455H40.521V174.477H40.6062C40.7596 174.145 40.9925 173.878 41.305 173.676C41.6175 173.472 42.021 173.369 42.5153 173.369C42.9585 173.369 43.3462 173.46 43.6786 173.642C44.011 173.821 44.2695 174.094 44.4542 174.46C44.6388 174.824 44.7312 175.284 44.7312 175.841V180H43.7255V175.909C43.7255 175.395 43.592 174.994 43.3249 174.707C43.0579 174.418 42.6914 174.273 42.2255 174.273C41.9045 174.273 41.6175 174.342 41.3647 174.482C41.1147 174.621 40.9173 174.824 40.7724 175.091C40.6275 175.358 40.555 175.682 40.555 176.062Z" fill="#475467"/>
<path d="M75.1478 180V171.273H80.3807V172.21H76.2046V175.159H79.9887V176.097H76.2046V180H75.1478ZM84.3182 180.136C83.6875 180.136 83.1435 179.997 82.6861 179.719C82.2316 179.438 81.8807 179.045 81.6336 178.543C81.3892 178.037 81.2671 177.449 81.2671 176.778C81.2671 176.108 81.3892 175.517 81.6336 175.006C81.8807 174.491 82.2245 174.091 82.6648 173.804C83.108 173.514 83.625 173.369 84.2159 173.369C84.5569 173.369 84.8935 173.426 85.2259 173.54C85.5583 173.653 85.8608 173.838 86.1336 174.094C86.4063 174.347 86.6236 174.682 86.7855 175.099C86.9475 175.517 87.0284 176.031 87.0284 176.642V177.068H81.983V176.199H86.0057C86.0057 175.83 85.9319 175.5 85.7841 175.21C85.6392 174.92 85.4319 174.692 85.162 174.524C84.8949 174.357 84.5796 174.273 84.2159 174.273C83.8154 174.273 83.4688 174.372 83.1762 174.571C82.8864 174.767 82.6634 175.023 82.5071 175.338C82.3509 175.653 82.2728 175.991 82.2728 176.352V176.932C82.2728 177.426 82.358 177.845 82.5284 178.189C82.7017 178.53 82.9418 178.79 83.2486 178.969C83.5554 179.145 83.912 179.233 84.3182 179.233C84.5824 179.233 84.8211 179.196 85.0341 179.122C85.25 179.045 85.4361 178.932 85.5924 178.781C85.7486 178.628 85.8694 178.437 85.9546 178.21L86.9262 178.483C86.8239 178.812 86.652 179.102 86.4105 179.352C86.1691 179.599 85.8708 179.793 85.5157 179.932C85.1605 180.068 84.7614 180.136 84.3182 180.136ZM88.6946 180V171.273H89.7003V174.494H89.7855C89.8594 174.381 89.9617 174.236 90.0924 174.06C90.2259 173.881 90.4162 173.722 90.6634 173.582C90.9134 173.44 91.2515 173.369 91.6776 173.369C92.2287 173.369 92.7145 173.507 93.135 173.783C93.5554 174.058 93.8836 174.449 94.1194 174.955C94.3551 175.46 94.473 176.057 94.473 176.744C94.473 177.438 94.3551 178.038 94.1194 178.547C93.8836 179.053 93.5569 179.445 93.1392 179.723C92.7216 179.999 92.2401 180.136 91.6946 180.136C91.2742 180.136 90.9375 180.067 90.6847 179.928C90.4319 179.786 90.2372 179.625 90.1009 179.446C89.9645 179.264 89.8594 179.114 89.7855 178.994H89.6662V180H88.6946ZM89.6833 176.727C89.6833 177.222 89.7557 177.658 89.9006 178.036C90.0455 178.411 90.2571 178.705 90.5355 178.918C90.814 179.128 91.1549 179.233 91.5583 179.233C91.9787 179.233 92.3296 179.122 92.6108 178.901C92.8949 178.676 93.108 178.375 93.25 177.997C93.3949 177.616 93.4674 177.193 93.4674 176.727C93.4674 176.267 93.3963 175.852 93.2543 175.483C93.1151 175.111 92.9034 174.817 92.6194 174.601C92.3381 174.382 91.9844 174.273 91.5583 174.273C91.1492 174.273 90.8054 174.376 90.527 174.584C90.2486 174.788 90.0384 175.075 89.8963 175.445C89.7543 175.811 89.6833 176.239 89.6833 176.727Z" fill="#475467"/>
<path d="M124.288 171.273H125.549L128.515 178.517H128.617L131.583 171.273H132.844V180H131.856V173.369H131.77L129.043 180H128.089L125.361 173.369H125.276V180H124.288V171.273ZM136.753 180.153C136.338 180.153 135.962 180.075 135.624 179.919C135.286 179.76 135.017 179.531 134.818 179.233C134.62 178.932 134.52 178.568 134.52 178.142C134.52 177.767 134.594 177.463 134.742 177.23C134.889 176.994 135.087 176.81 135.334 176.676C135.581 176.543 135.854 176.443 136.152 176.378C136.453 176.31 136.756 176.256 137.06 176.216C137.458 176.165 137.78 176.126 138.027 176.101C138.277 176.072 138.459 176.026 138.573 175.96C138.689 175.895 138.747 175.781 138.747 175.619V175.585C138.747 175.165 138.632 174.838 138.402 174.605C138.175 174.372 137.83 174.256 137.367 174.256C136.887 174.256 136.51 174.361 136.237 174.571C135.965 174.781 135.773 175.006 135.662 175.244L134.708 174.903C134.878 174.506 135.105 174.196 135.389 173.974C135.676 173.75 135.989 173.594 136.327 173.506C136.668 173.415 137.003 173.369 137.333 173.369C137.543 173.369 137.784 173.395 138.057 173.446C138.333 173.494 138.598 173.595 138.854 173.749C139.112 173.902 139.327 174.134 139.497 174.443C139.668 174.753 139.753 175.168 139.753 175.688V180H138.747V179.114H138.696C138.628 179.256 138.514 179.408 138.355 179.57C138.196 179.732 137.985 179.869 137.72 179.983C137.456 180.097 137.134 180.153 136.753 180.153ZM136.906 179.25C137.304 179.25 137.639 179.172 137.912 179.016C138.188 178.859 138.395 178.658 138.534 178.411C138.676 178.163 138.747 177.903 138.747 177.631V176.71C138.705 176.761 138.611 176.808 138.466 176.851C138.324 176.891 138.159 176.926 137.972 176.957C137.787 176.986 137.607 177.011 137.431 177.034C137.257 177.054 137.117 177.071 137.009 177.085C136.747 177.119 136.503 177.175 136.276 177.251C136.051 177.325 135.87 177.437 135.73 177.588C135.594 177.736 135.526 177.937 135.526 178.193C135.526 178.543 135.655 178.807 135.914 178.986C136.175 179.162 136.506 179.25 136.906 179.25ZM141.589 180V173.455H142.56V174.443H142.628C142.748 174.119 142.964 173.857 143.276 173.655C143.589 173.453 143.941 173.352 144.333 173.352C144.407 173.352 144.499 173.354 144.61 173.357C144.721 173.359 144.805 173.364 144.861 173.369V174.392C144.827 174.384 144.749 174.371 144.627 174.354C144.508 174.334 144.381 174.324 144.248 174.324C143.93 174.324 143.645 174.391 143.395 174.524C143.148 174.655 142.952 174.837 142.807 175.07C142.665 175.3 142.594 175.562 142.594 175.858V180H141.589Z" fill="#475467"/>
<path d="M174.744 180H173.636L176.841 171.273H177.932L181.136 180H180.028L177.42 172.653H177.352L174.744 180ZM175.153 176.591H179.619V177.528H175.153V176.591ZM182.359 182.455V173.455H183.331V174.494H183.45C183.524 174.381 183.626 174.236 183.757 174.06C183.89 173.881 184.081 173.722 184.328 173.582C184.578 173.44 184.916 173.369 185.342 173.369C185.893 173.369 186.379 173.507 186.8 173.783C187.22 174.058 187.548 174.449 187.784 174.955C188.02 175.46 188.138 176.057 188.138 176.744C188.138 177.438 188.02 178.038 187.784 178.547C187.548 179.053 187.221 179.445 186.804 179.723C186.386 179.999 185.905 180.136 185.359 180.136C184.939 180.136 184.602 180.067 184.349 179.928C184.096 179.786 183.902 179.625 183.765 179.446C183.629 179.264 183.524 179.114 183.45 178.994H183.365V182.455H182.359ZM183.348 176.727C183.348 177.222 183.42 177.658 183.565 178.036C183.71 178.411 183.922 178.705 184.2 178.918C184.478 179.128 184.819 179.233 185.223 179.233C185.643 179.233 185.994 179.122 186.275 178.901C186.559 178.676 186.773 178.375 186.915 177.997C187.059 177.616 187.132 177.193 187.132 176.727C187.132 176.267 187.061 175.852 186.919 175.483C186.78 175.111 186.568 174.817 186.284 174.601C186.003 174.382 185.649 174.273 185.223 174.273C184.814 174.273 184.47 174.376 184.192 174.584C183.913 174.788 183.703 175.075 183.561 175.445C183.419 175.811 183.348 176.239 183.348 176.727ZM189.672 180V173.455H190.643V174.443H190.711C190.831 174.119 191.047 173.857 191.359 173.655C191.672 173.453 192.024 173.352 192.416 173.352C192.49 173.352 192.582 173.354 192.693 173.357C192.804 173.359 192.888 173.364 192.944 173.369V174.392C192.91 174.384 192.832 174.371 192.71 174.354C192.591 174.334 192.464 174.324 192.331 174.324C192.013 174.324 191.728 174.391 191.478 174.524C191.231 174.655 191.035 174.837 190.89 175.07C190.748 175.3 190.677 175.562 190.677 175.858V180H189.672Z" fill="#475467"/>
<path d="M222.479 171.273H223.741L226.706 178.517H226.809L229.775 171.273H231.036V180H230.047V173.369H229.962L227.235 180H226.28L223.553 173.369H223.468V180H222.479V171.273ZM234.945 180.153C234.53 180.153 234.154 180.075 233.815 179.919C233.477 179.76 233.209 179.531 233.01 179.233C232.811 178.932 232.712 178.568 232.712 178.142C232.712 177.767 232.786 177.463 232.933 177.23C233.081 176.994 233.279 176.81 233.526 176.676C233.773 176.543 234.046 176.443 234.344 176.378C234.645 176.31 234.948 176.256 235.252 176.216C235.649 176.165 235.972 176.126 236.219 176.101C236.469 176.072 236.651 176.026 236.764 175.96C236.881 175.895 236.939 175.781 236.939 175.619V175.585C236.939 175.165 236.824 174.838 236.594 174.605C236.367 174.372 236.021 174.256 235.558 174.256C235.078 174.256 234.702 174.361 234.429 174.571C234.156 174.781 233.965 175.006 233.854 175.244L232.899 174.903C233.07 174.506 233.297 174.196 233.581 173.974C233.868 173.75 234.181 173.594 234.519 173.506C234.86 173.415 235.195 173.369 235.524 173.369C235.735 173.369 235.976 173.395 236.249 173.446C236.524 173.494 236.79 173.595 237.046 173.749C237.304 173.902 237.519 174.134 237.689 174.443C237.86 174.753 237.945 175.168 237.945 175.688V180H236.939V179.114H236.888C236.82 179.256 236.706 179.408 236.547 179.57C236.388 179.732 236.176 179.869 235.912 179.983C235.648 180.097 235.325 180.153 234.945 180.153ZM235.098 179.25C235.496 179.25 235.831 179.172 236.104 179.016C236.379 178.859 236.587 178.658 236.726 178.411C236.868 178.163 236.939 177.903 236.939 177.631V176.71C236.896 176.761 236.803 176.808 236.658 176.851C236.516 176.891 236.351 176.926 236.163 176.957C235.979 176.986 235.798 177.011 235.622 177.034C235.449 177.054 235.308 177.071 235.2 177.085C234.939 177.119 234.695 177.175 234.467 177.251C234.243 177.325 234.061 177.437 233.922 177.588C233.786 177.736 233.717 177.937 233.717 178.193C233.717 178.543 233.847 178.807 234.105 178.986C234.367 179.162 234.698 179.25 235.098 179.25ZM240.194 182.455C240.023 182.455 239.871 182.44 239.738 182.412C239.604 182.386 239.512 182.361 239.461 182.335L239.716 181.449C239.961 181.511 240.177 181.534 240.364 181.517C240.552 181.5 240.718 181.416 240.863 181.266C241.01 181.118 241.145 180.878 241.268 180.545L241.455 180.034L239.035 173.455H240.125L241.932 178.67H242L243.807 173.455H244.898L242.12 180.955C241.995 181.293 241.84 181.572 241.655 181.794C241.471 182.018 241.256 182.185 241.012 182.293C240.77 182.401 240.498 182.455 240.194 182.455Z" fill="#475467"/>
<path d="M278.098 171.273H279.155V177.511C279.155 178.068 279.053 178.541 278.848 178.93C278.644 179.32 278.356 179.615 277.983 179.817C277.611 180.018 277.172 180.119 276.667 180.119C276.189 180.119 275.765 180.033 275.392 179.859C275.02 179.683 274.728 179.433 274.515 179.109C274.302 178.786 274.195 178.401 274.195 177.955H275.235C275.235 178.202 275.296 178.418 275.418 178.602C275.543 178.784 275.713 178.926 275.929 179.028C276.145 179.131 276.391 179.182 276.667 179.182C276.971 179.182 277.229 179.118 277.442 178.99C277.655 178.862 277.817 178.675 277.928 178.428C278.042 178.178 278.098 177.872 278.098 177.511V171.273ZM285.262 177.324V173.455H286.267V180H285.262V178.892H285.194C285.04 179.224 284.802 179.507 284.478 179.74C284.154 179.97 283.745 180.085 283.25 180.085C282.841 180.085 282.478 179.996 282.159 179.817C281.841 179.635 281.591 179.362 281.409 178.999C281.228 178.632 281.137 178.17 281.137 177.614V173.455H282.142V177.545C282.142 178.023 282.276 178.403 282.543 178.688C282.813 178.972 283.157 179.114 283.574 179.114C283.824 179.114 284.079 179.05 284.337 178.922C284.598 178.794 284.817 178.598 284.993 178.334C285.172 178.07 285.262 177.733 285.262 177.324ZM289.115 176.062V180H288.109V173.455H289.081V174.477H289.166C289.32 174.145 289.553 173.878 289.865 173.676C290.178 173.472 290.581 173.369 291.075 173.369C291.519 173.369 291.906 173.46 292.239 173.642C292.571 173.821 292.83 174.094 293.014 174.46C293.199 174.824 293.291 175.284 293.291 175.841V180H292.286V175.909C292.286 175.395 292.152 174.994 291.885 174.707C291.618 174.418 291.251 174.273 290.786 174.273C290.465 174.273 290.178 174.342 289.925 174.482C289.675 174.621 289.477 174.824 289.332 175.091C289.188 175.358 289.115 175.682 289.115 176.062Z" fill="#475467"/>
<path d="M327.275 171.273H328.332V177.511C328.332 178.068 328.23 178.541 328.025 178.93C327.821 179.32 327.532 179.615 327.16 179.817C326.788 180.018 326.349 180.119 325.843 180.119C325.366 180.119 324.941 180.033 324.569 179.859C324.197 179.683 323.904 179.433 323.691 179.109C323.478 178.786 323.372 178.401 323.372 177.955H324.412C324.412 178.202 324.473 178.418 324.595 178.602C324.72 178.784 324.89 178.926 325.106 179.028C325.322 179.131 325.568 179.182 325.843 179.182C326.147 179.182 326.406 179.118 326.619 178.99C326.832 178.862 326.994 178.675 327.105 178.428C327.218 178.178 327.275 177.872 327.275 177.511V171.273ZM334.439 177.324V173.455H335.444V180H334.439V178.892H334.37C334.217 179.224 333.978 179.507 333.654 179.74C333.331 179.97 332.921 180.085 332.427 180.085C332.018 180.085 331.654 179.996 331.336 179.817C331.018 179.635 330.768 179.362 330.586 178.999C330.404 178.632 330.314 178.17 330.314 177.614V173.455H331.319V177.545C331.319 178.023 331.453 178.403 331.72 178.688C331.99 178.972 332.333 179.114 332.751 179.114C333.001 179.114 333.255 179.05 333.514 178.922C333.775 178.794 333.994 178.598 334.17 178.334C334.349 178.07 334.439 177.733 334.439 177.324ZM338.292 171.273V180H337.286V171.273H338.292Z" fill="#475467"/>
<path d="M369.354 180H368.246L371.451 171.273H372.541L375.746 180H374.638L372.03 172.653H371.962L369.354 180ZM369.763 176.591H374.229V177.528H369.763V176.591ZM381.094 177.324V173.455H382.1V180H381.094V178.892H381.026C380.872 179.224 380.634 179.507 380.31 179.74C379.986 179.97 379.577 180.085 379.083 180.085C378.674 180.085 378.31 179.996 377.992 179.817C377.674 179.635 377.424 179.362 377.242 178.999C377.06 178.632 376.969 178.17 376.969 177.614V173.455H377.975V177.545C377.975 178.023 378.108 178.403 378.375 178.688C378.645 178.972 378.989 179.114 379.407 179.114C379.657 179.114 379.911 179.05 380.169 178.922C380.431 178.794 380.649 178.598 380.826 178.334C381.005 178.07 381.094 177.733 381.094 177.324ZM386.584 182.591C386.098 182.591 385.68 182.528 385.331 182.403C384.981 182.281 384.69 182.119 384.457 181.918C384.227 181.719 384.044 181.506 383.908 181.278L384.709 180.716C384.8 180.835 384.915 180.972 385.054 181.125C385.193 181.281 385.383 181.416 385.625 181.53C385.869 181.646 386.189 181.705 386.584 181.705C387.112 181.705 387.548 181.577 387.892 181.321C388.236 181.065 388.408 180.665 388.408 180.119V178.79H388.322C388.249 178.909 388.143 179.057 388.007 179.233C387.874 179.406 387.68 179.561 387.427 179.697C387.177 179.831 386.839 179.898 386.413 179.898C385.885 179.898 385.41 179.773 384.99 179.523C384.572 179.273 384.241 178.909 383.997 178.432C383.756 177.955 383.635 177.375 383.635 176.693C383.635 176.023 383.753 175.439 383.989 174.942C384.224 174.442 384.552 174.055 384.973 173.783C385.393 173.507 385.879 173.369 386.43 173.369C386.856 173.369 387.195 173.44 387.445 173.582C387.697 173.722 387.891 173.881 388.024 174.06C388.16 174.236 388.266 174.381 388.339 174.494H388.442V173.455H389.413V180.188C389.413 180.75 389.285 181.207 389.03 181.56C388.777 181.915 388.436 182.175 388.007 182.339C387.581 182.507 387.106 182.591 386.584 182.591ZM386.55 178.994C386.953 178.994 387.294 178.902 387.572 178.717C387.851 178.533 388.062 178.267 388.207 177.92C388.352 177.574 388.425 177.159 388.425 176.676C388.425 176.205 388.354 175.788 388.212 175.428C388.07 175.067 387.859 174.784 387.581 174.58C387.302 174.375 386.959 174.273 386.55 174.273C386.124 174.273 385.768 174.381 385.484 174.597C385.203 174.812 384.991 175.102 384.849 175.466C384.71 175.83 384.641 176.233 384.641 176.676C384.641 177.131 384.712 177.533 384.854 177.882C384.999 178.229 385.212 178.501 385.493 178.7C385.777 178.896 386.129 178.994 386.55 178.994Z" fill="#475467"/>
<path d="M424.582 173.455C424.531 173.023 424.324 172.688 423.96 172.449C423.596 172.21 423.15 172.091 422.622 172.091C422.236 172.091 421.898 172.153 421.608 172.278C421.321 172.403 421.096 172.575 420.935 172.794C420.775 173.013 420.696 173.261 420.696 173.54C420.696 173.773 420.751 173.973 420.862 174.141C420.976 174.305 421.121 174.443 421.297 174.554C421.473 174.662 421.658 174.751 421.851 174.822C422.044 174.891 422.221 174.946 422.383 174.989L423.27 175.227C423.497 175.287 423.75 175.369 424.028 175.474C424.31 175.58 424.578 175.723 424.834 175.905C425.092 176.084 425.305 176.314 425.473 176.595C425.64 176.876 425.724 177.222 425.724 177.631C425.724 178.102 425.601 178.528 425.354 178.909C425.109 179.29 424.751 179.592 424.28 179.817C423.811 180.041 423.241 180.153 422.571 180.153C421.946 180.153 421.405 180.053 420.947 179.851C420.493 179.649 420.135 179.368 419.873 179.007C419.615 178.646 419.469 178.227 419.435 177.75H420.525C420.554 178.08 420.665 178.352 420.858 178.568C421.054 178.781 421.301 178.94 421.599 179.045C421.9 179.148 422.224 179.199 422.571 179.199C422.974 179.199 423.336 179.134 423.658 179.003C423.979 178.869 424.233 178.685 424.42 178.449C424.608 178.21 424.702 177.932 424.702 177.614C424.702 177.324 424.621 177.088 424.459 176.906C424.297 176.724 424.084 176.577 423.819 176.463C423.555 176.349 423.27 176.25 422.963 176.165L421.889 175.858C421.207 175.662 420.667 175.382 420.27 175.018C419.872 174.655 419.673 174.179 419.673 173.591C419.673 173.102 419.805 172.676 420.069 172.312C420.336 171.946 420.694 171.662 421.143 171.46C421.595 171.256 422.099 171.153 422.656 171.153C423.219 171.153 423.719 171.254 424.156 171.456C424.594 171.655 424.94 171.928 425.196 172.274C425.454 172.621 425.591 173.014 425.605 173.455H424.582ZM430.07 180.136C429.439 180.136 428.895 179.997 428.438 179.719C427.983 179.438 427.632 179.045 427.385 178.543C427.141 178.037 427.019 177.449 427.019 176.778C427.019 176.108 427.141 175.517 427.385 175.006C427.632 174.491 427.976 174.091 428.416 173.804C428.86 173.514 429.377 173.369 429.968 173.369C430.308 173.369 430.645 173.426 430.977 173.54C431.31 173.653 431.612 173.838 431.885 174.094C432.158 174.347 432.375 174.682 432.537 175.099C432.699 175.517 432.78 176.031 432.78 176.642V177.068H427.735V176.199H431.757C431.757 175.83 431.683 175.5 431.536 175.21C431.391 174.92 431.183 174.692 430.914 174.524C430.647 174.357 430.331 174.273 429.968 174.273C429.567 174.273 429.22 174.372 428.928 174.571C428.638 174.767 428.415 175.023 428.259 175.338C428.102 175.653 428.024 175.991 428.024 176.352V176.932C428.024 177.426 428.11 177.845 428.28 178.189C428.453 178.53 428.693 178.79 429 178.969C429.307 179.145 429.664 179.233 430.07 179.233C430.334 179.233 430.573 179.196 430.786 179.122C431.002 179.045 431.188 178.932 431.344 178.781C431.5 178.628 431.621 178.437 431.706 178.21L432.678 178.483C432.575 178.812 432.404 179.102 432.162 179.352C431.921 179.599 431.622 179.793 431.267 179.932C430.912 180.068 430.513 180.136 430.07 180.136ZM434.31 182.455V173.455H435.281V174.494H435.401C435.475 174.381 435.577 174.236 435.708 174.06C435.841 173.881 436.031 173.722 436.279 173.582C436.529 173.44 436.867 173.369 437.293 173.369C437.844 173.369 438.33 173.507 438.75 173.783C439.171 174.058 439.499 174.449 439.735 174.955C439.97 175.46 440.088 176.057 440.088 176.744C440.088 177.438 439.97 178.038 439.735 178.547C439.499 179.053 439.172 179.445 438.754 179.723C438.337 179.999 437.855 180.136 437.31 180.136C436.889 180.136 436.553 180.067 436.3 179.928C436.047 179.786 435.852 179.625 435.716 179.446C435.58 179.264 435.475 179.114 435.401 178.994H435.316V182.455H434.31ZM435.298 176.727C435.298 177.222 435.371 177.658 435.516 178.036C435.661 178.411 435.872 178.705 436.151 178.918C436.429 179.128 436.77 179.233 437.173 179.233C437.594 179.233 437.945 179.122 438.226 178.901C438.51 178.676 438.723 178.375 438.865 177.997C439.01 177.616 439.083 177.193 439.083 176.727C439.083 176.267 439.012 175.852 438.87 175.483C438.73 175.111 438.519 174.817 438.235 174.601C437.953 174.382 437.6 174.273 437.173 174.273C436.764 174.273 436.421 174.376 436.142 174.584C435.864 174.788 435.654 175.075 435.512 175.445C435.37 175.811 435.298 176.239 435.298 176.727Z" fill="#475467"/>
<path d="M477.637 175.636C477.637 176.557 477.471 177.352 477.138 178.023C476.806 178.693 476.35 179.21 475.771 179.574C475.191 179.938 474.529 180.119 473.785 180.119C473.04 180.119 472.378 179.938 471.799 179.574C471.219 179.21 470.763 178.693 470.431 178.023C470.099 177.352 469.932 176.557 469.932 175.636C469.932 174.716 470.099 173.92 470.431 173.25C470.763 172.58 471.219 172.062 471.799 171.699C472.378 171.335 473.04 171.153 473.785 171.153C474.529 171.153 475.191 171.335 475.771 171.699C476.35 172.062 476.806 172.58 477.138 173.25C477.471 173.92 477.637 174.716 477.637 175.636ZM476.614 175.636C476.614 174.881 476.488 174.243 476.235 173.723C475.985 173.203 475.646 172.81 475.217 172.543C474.79 172.276 474.313 172.142 473.785 172.142C473.256 172.142 472.778 172.276 472.349 172.543C471.923 172.81 471.583 173.203 471.33 173.723C471.08 174.243 470.955 174.881 470.955 175.636C470.955 176.392 471.08 177.03 471.33 177.55C471.583 178.07 471.923 178.463 472.349 178.73C472.778 178.997 473.256 179.131 473.785 179.131C474.313 179.131 474.79 178.997 475.217 178.73C475.646 178.463 475.985 178.07 476.235 177.55C476.488 177.03 476.614 176.392 476.614 175.636ZM481.937 180.136C481.323 180.136 480.795 179.991 480.351 179.702C479.908 179.412 479.567 179.013 479.329 178.504C479.09 177.996 478.971 177.415 478.971 176.761C478.971 176.097 479.093 175.51 479.337 175.001C479.584 174.49 479.928 174.091 480.369 173.804C480.812 173.514 481.329 173.369 481.92 173.369C482.38 173.369 482.795 173.455 483.164 173.625C483.533 173.795 483.836 174.034 484.072 174.341C484.307 174.648 484.454 175.006 484.511 175.415H483.505C483.428 175.116 483.258 174.852 482.994 174.622C482.732 174.389 482.38 174.273 481.937 174.273C481.545 174.273 481.201 174.375 480.905 174.58C480.613 174.781 480.384 175.067 480.219 175.436C480.057 175.803 479.976 176.233 479.976 176.727C479.976 177.233 480.056 177.673 480.215 178.048C480.377 178.423 480.604 178.714 480.897 178.922C481.192 179.129 481.539 179.233 481.937 179.233C482.198 179.233 482.435 179.188 482.648 179.097C482.861 179.006 483.042 178.875 483.19 178.705C483.337 178.534 483.442 178.33 483.505 178.091H484.511C484.454 178.477 484.313 178.825 484.089 179.135C483.867 179.442 483.573 179.686 483.207 179.868C482.843 180.047 482.42 180.136 481.937 180.136ZM488.827 173.455V174.307H485.435V173.455H488.827ZM486.424 171.886H487.43V178.125C487.43 178.409 487.471 178.622 487.553 178.764C487.638 178.903 487.746 178.997 487.877 179.045C488.011 179.091 488.151 179.114 488.299 179.114C488.41 179.114 488.501 179.108 488.572 179.097C488.643 179.082 488.7 179.071 488.742 179.062L488.947 179.966C488.878 179.991 488.783 180.017 488.661 180.043C488.539 180.071 488.384 180.085 488.197 180.085C487.913 180.085 487.634 180.024 487.361 179.902C487.092 179.78 486.867 179.594 486.688 179.344C486.512 179.094 486.424 178.778 486.424 178.398V171.886Z" fill="#475467"/>
<path d="M526.066 171.273V180H525.043L520.288 173.148H520.203V180H519.146V171.273H520.168L524.941 178.142H525.026V171.273H526.066ZM530.704 180.136C530.113 180.136 529.594 179.996 529.148 179.714C528.705 179.433 528.358 179.04 528.108 178.534C527.861 178.028 527.738 177.437 527.738 176.761C527.738 176.08 527.861 175.484 528.108 174.976C528.358 174.467 528.705 174.072 529.148 173.791C529.594 173.51 530.113 173.369 530.704 173.369C531.294 173.369 531.812 173.51 532.255 173.791C532.701 174.072 533.047 174.467 533.294 174.976C533.544 175.484 533.669 176.08 533.669 176.761C533.669 177.437 533.544 178.028 533.294 178.534C533.047 179.04 532.701 179.433 532.255 179.714C531.812 179.996 531.294 180.136 530.704 180.136ZM530.704 179.233C531.152 179.233 531.522 179.118 531.812 178.888C532.101 178.658 532.316 178.355 532.455 177.98C532.594 177.605 532.664 177.199 532.664 176.761C532.664 176.324 532.594 175.916 532.455 175.538C532.316 175.161 532.101 174.855 531.812 174.622C531.522 174.389 531.152 174.273 530.704 174.273C530.255 174.273 529.885 174.389 529.596 174.622C529.306 174.855 529.091 175.161 528.952 175.538C528.813 175.916 528.743 176.324 528.743 176.761C528.743 177.199 528.813 177.605 528.952 177.98C529.091 178.355 529.306 178.658 529.596 178.888C529.885 179.118 530.255 179.233 530.704 179.233ZM540.323 173.455L537.902 180H536.879L534.459 173.455H535.55L537.357 178.67H537.425L539.232 173.455H540.323Z" fill="#475467"/>
<path d="M573.094 180H570.401V171.273H573.213C574.06 171.273 574.784 171.447 575.386 171.797C575.989 172.143 576.45 172.642 576.771 173.293C577.092 173.94 577.253 174.716 577.253 175.619C577.253 176.528 577.091 177.311 576.767 177.967C576.443 178.621 575.972 179.124 575.352 179.476C574.733 179.825 573.98 180 573.094 180ZM571.457 179.062H573.026C573.747 179.062 574.345 178.923 574.82 178.645C575.294 178.366 575.648 177.97 575.881 177.456C576.114 176.942 576.23 176.33 576.23 175.619C576.23 174.915 576.115 174.308 575.885 173.8C575.655 173.288 575.311 172.896 574.854 172.624C574.396 172.348 573.827 172.21 573.145 172.21H571.457V179.062ZM581.634 180.136C581.003 180.136 580.459 179.997 580.001 179.719C579.547 179.438 579.196 179.045 578.949 178.543C578.705 178.037 578.582 177.449 578.582 176.778C578.582 176.108 578.705 175.517 578.949 175.006C579.196 174.491 579.54 174.091 579.98 173.804C580.423 173.514 580.94 173.369 581.531 173.369C581.872 173.369 582.209 173.426 582.541 173.54C582.874 173.653 583.176 173.838 583.449 174.094C583.722 174.347 583.939 174.682 584.101 175.099C584.263 175.517 584.344 176.031 584.344 176.642V177.068H579.298V176.199H583.321C583.321 175.83 583.247 175.5 583.099 175.21C582.955 174.92 582.747 174.692 582.477 174.524C582.21 174.357 581.895 174.273 581.531 174.273C581.131 174.273 580.784 174.372 580.491 174.571C580.202 174.767 579.979 175.023 579.822 175.338C579.666 175.653 579.588 175.991 579.588 176.352V176.932C579.588 177.426 579.673 177.845 579.844 178.189C580.017 178.53 580.257 178.79 580.564 178.969C580.871 179.145 581.227 179.233 581.634 179.233C581.898 179.233 582.136 179.196 582.349 179.122C582.565 179.045 582.751 178.932 582.908 178.781C583.064 178.628 583.185 178.437 583.27 178.21L584.241 178.483C584.139 178.812 583.967 179.102 583.726 179.352C583.484 179.599 583.186 179.793 582.831 179.932C582.476 180.068 582.077 180.136 581.634 180.136ZM588.533 180.136C587.919 180.136 587.391 179.991 586.947 179.702C586.504 179.412 586.163 179.013 585.925 178.504C585.686 177.996 585.567 177.415 585.567 176.761C585.567 176.097 585.689 175.51 585.933 175.001C586.18 174.49 586.524 174.091 586.964 173.804C587.408 173.514 587.925 173.369 588.516 173.369C588.976 173.369 589.391 173.455 589.76 173.625C590.129 173.795 590.432 174.034 590.668 174.341C590.903 174.648 591.05 175.006 591.107 175.415H590.101C590.024 175.116 589.854 174.852 589.589 174.622C589.328 174.389 588.976 174.273 588.533 174.273C588.141 174.273 587.797 174.375 587.501 174.58C587.209 174.781 586.98 175.067 586.815 175.436C586.653 175.803 586.572 176.233 586.572 176.727C586.572 177.233 586.652 177.673 586.811 178.048C586.973 178.423 587.2 178.714 587.493 178.922C587.788 179.129 588.135 179.233 588.533 179.233C588.794 179.233 589.031 179.188 589.244 179.097C589.457 179.006 589.638 178.875 589.786 178.705C589.933 178.534 590.038 178.33 590.101 178.091H591.107C591.05 178.477 590.909 178.825 590.685 179.135C590.463 179.442 590.169 179.686 589.803 179.868C589.439 180.047 589.016 180.136 588.533 180.136Z" fill="#475467"/>
<mask id="mask0_190_60407" style="mask-type:alpha" maskUnits="userSpaceOnUse" x="1" y="25" width="615" height="133">
<rect width="615" height="133" transform="translate(1 25)" fill="url(#paint0_linear_190_60407)"/>
</mask>
<g mask="url(#mask0_190_60407)">
<g style="mix-blend-mode:multiply" opacity="0.1">
<path d="M598.429 31.6494C607.214 31.6494 607.214 20.5729 616 20.5729V158H1V91.3837C10.5179 91.3837 9.78571 95.4583 18.5714 95.4583C27.3572 95.4583 27.3572 83.8872 36.1429 83.8872C44.9286 83.8872 43.4643 87.4476 53.7143 87.4476C63.9643 87.4476 61.0357 94.1133 71.2857 94.1133C81.5357 94.1133 79.3392 91.5815 88.8571 91.5815C98.375 91.5815 96.5446 79.516 106.429 79.516C116.312 79.516 113.75 83.4521 124 83.4521C134.25 83.4521 132.42 88.8717 141.571 88.8717C150.723 88.8717 149.259 70.8723 159.143 70.8723C169.027 70.8723 167.929 77.1029 176.714 77.1029C185.5 77.1029 184.036 68.3801 194.286 68.3801C204.536 68.3801 202.339 73.9579 211.857 73.9579C221.375 73.9579 219.911 51.1521 229.429 51.1521C238.946 51.1521 237.116 57.5013 247 57.5013C256.884 57.5013 254.321 61.6946 264.571 61.6946C274.821 61.6946 272.259 50.8158 282.143 50.8158C292.027 50.8158 289.464 56.1563 299.714 56.1563C309.964 56.1563 308.134 47.3544 317.286 47.3544C326.438 47.3544 325.339 32.6384 334.857 32.6384C344.375 32.6384 342.911 57.264 352.429 57.264C361.946 57.264 360.848 40.0162 370 40.0162C379.152 40.0162 377.321 47.572 387.571 47.572C397.821 47.572 395.625 54.3564 405.143 54.3564C414.661 54.3564 413.562 43.1216 422.714 43.1216C431.866 43.1216 431.134 53.8025 440.286 53.8025C449.438 53.8025 448.339 49.0554 457.857 49.0554C467.375 49.0554 465.911 39.2646 475.429 39.2646C484.946 39.2646 483.482 43.1809 493 43.1809C502.518 43.1809 501.786 28.8803 510.571 28.8803C519.357 28.8803 517.893 48.4818 528.143 48.4818C538.393 48.4818 535.83 35.1702 545.714 35.1702C555.598 35.1702 554.134 40.6491 563.286 40.6491C572.438 40.6491 571.705 27.0012 580.857 27.0012C590.009 27.0012 589.643 31.6494 598.429 31.6494Z" fill="#5969AD"/>
</g>
</g>
<path d="M616 20.5729C607.214 20.5729 607.214 31.6494 598.429 31.6494C589.643 31.6494 590.009 27.0012 580.857 27.0012C571.705 27.0012 572.438 40.6491 563.286 40.6491C554.134 40.6491 555.598 35.1702 545.714 35.1702C535.83 35.1702 538.393 48.4818 528.143 48.4818C517.893 48.4818 519.357 28.8803 510.571 28.8803C501.786 28.8803 502.518 43.1809 493 43.1809C483.482 43.1809 484.946 39.2646 475.429 39.2646C465.911 39.2646 467.375 49.0554 457.857 49.0554C448.339 49.0554 449.438 53.8025 440.286 53.8025C431.134 53.8025 431.866 43.1216 422.714 43.1216C413.562 43.1216 414.661 54.3564 405.143 54.3564C395.625 54.3564 397.821 47.572 387.571 47.572C377.321 47.572 379.152 40.0162 370 40.0162C360.848 40.0162 361.946 57.264 352.429 57.264C342.911 57.264 344.375 32.6384 334.857 32.6384C325.339 32.6384 326.438 47.3544 317.286 47.3544C308.134 47.3544 309.964 56.1563 299.714 56.1563C289.464 56.1563 292.027 50.8158 282.143 50.8158C272.259 50.8158 274.821 61.6946 264.571 61.6946C254.321 61.6946 256.884 57.5013 247 57.5013C237.116 57.5013 238.946 51.1521 229.429 51.1521C219.911 51.1521 221.375 73.9579 211.857 73.9579C202.339 73.9579 204.536 68.3801 194.286 68.3801C184.036 68.3801 185.5 77.1029 176.714 77.1029C167.929 77.1029 169.027 70.8723 159.143 70.8723C149.259 70.8723 150.723 88.8717 141.571 88.8717C132.42 88.8717 134.25 83.4521 124 83.4521C113.75 83.4521 116.312 79.516 106.429 79.516C96.5446 79.516 98.375 91.5815 88.8571 91.5815C79.3393 91.5815 81.5357 94.1133 71.2857 94.1133C61.0357 94.1133 63.9643 87.4476 53.7143 87.4476C43.4643 87.4476 44.9286 83.8873 36.1429 83.8873C27.3572 83.8873 27.3571 95.4583 18.5714 95.4583C9.78572 95.4583 10.5179 91.3837 0.999996 91.3837" stroke="#5969AD" stroke-width="2" stroke-linecap="round" stroke-linejoin="round"/>
<defs>
<linearGradient id="paint0_linear_190_60407" x1="307.5" y1="0" x2="307.5" y2="133" gradientUnits="userSpaceOnUse">
<stop/>
<stop offset="1" stop-opacity="0"/>
</linearGradient>
</defs>
</svg>
