<svg width="145" height="33" viewBox="0 0 145 33" fill="none" xmlns="http://www.w3.org/2000/svg">
<path d="M8.8982 18.6981C8.68959 18.6981 8.8982 18.4245 8.8982 18.4245C8.8982 18.4245 12.8085 9.99856 12.9302 9.8789C13.0518 9.75929 13.2083 9.8789 13.2083 9.8789L17.2402 18.6981H8.8982ZM27.8416 28.4058C27.0421 27.8247 26.3122 26.2865 26.3122 26.2865L16.2322 5.29846H13.3125L4.17105 25.6712C4.17105 25.6712 2.8502 28.2691 0 29.021V29.5339H9.76713V28.987C9.76713 28.987 7.16028 28.6104 6.18699 25.9788C6.18699 25.9788 5.97849 24.8165 6.43033 24.2356L8.34201 19.9627H17.8311L20.438 25.5003C20.438 25.5003 20.9768 27.1069 20.2817 27.9614C20.2817 27.9614 19.6733 28.9186 18.3873 28.987V29.5339H29.9272V29.0553C29.9272 29.0553 28.641 28.987 27.8416 28.4058Z" fill="#28365C"/>
<path d="M48.6772 13.4209C47.588 17.1457 42.8376 17.4087 42.8376 17.4087H40.5668V6.24255C46.0356 6.03743 46.9044 6.80083 47.5416 7.4275C48.1799 8.05507 49.6844 9.97623 48.6772 13.4209ZM52.5701 7.01735C50.3687 5.19429 45.5719 5.23985 45.5719 5.23985L36.558 5.34237L29.166 5.23977V5.78671C29.166 5.78671 32.387 5.58169 33.9164 7.15403C34.4483 7.77096 35.0518 8.24789 35.0518 9.77474V26.0685C35.0518 26.0685 34.3826 28.9397 31.7874 29.0536L31.7845 29.5778H44.8073V29.0308C44.8073 29.0308 42.9768 29.0308 41.8876 28.0282C40.7985 27.0255 40.6827 26.8887 40.4972 25.6809V18.3432C40.4972 18.3432 42.1425 18.3659 42.7682 18.3432C43.3938 18.3204 46.0356 18.5939 48.5612 17.7507C51.0871 16.9076 54.3774 16.1327 54.6091 11.5067C54.6091 11.5067 54.7713 8.84042 52.5701 7.01735Z" fill="#28365C"/>
<path d="M56.3555 5.90066C56.3555 5.90066 57.7458 5.69553 58.997 7.26798C60.2482 8.84032 60.1326 10.0026 60.1326 10.0026V25.1614C60.1326 25.3743 60.0957 25.5859 60.0213 25.7858C59.7045 26.6345 58.6673 28.8311 56.3555 29.0878V29.5778H79.0643L79.5513 24.1542H78.6008C78.6008 24.1542 76.9408 27.7769 72.72 28.3322C72.6397 28.3428 72.5589 28.3481 72.4781 28.3498L65.5088 28.5067V17.4999H71.1611C71.2992 17.4999 71.4367 17.5146 71.571 17.5454C72.2769 17.7073 74.4491 18.3493 75.0094 20.2118H76.168V13.5804H75.125C75.125 13.5804 73.8508 16.3149 71.3479 16.3149H65.5088V6.44764H70.779C70.9337 6.44764 71.0867 6.45706 71.2403 6.47643C72.248 6.60391 75.6387 7.25861 76.8166 10.3672H77.7435V5.328H56.3555" fill="#28365C"/>
<path d="M82.2861 29.5777C82.3557 29.5549 92.0184 29.5777 92.0184 29.5777V29.0764C92.0184 29.0764 90.1877 28.8257 89.9795 27.4357C89.7708 26.0456 90.6741 24.9745 90.6741 24.9745L95.5478 19.5157C95.6147 19.441 95.734 19.445 95.7956 19.5238L100.453 25.4985C100.453 25.4985 102.052 28.3016 99.2018 28.9852V29.5777H112.619V29.008C112.619 29.008 110.649 29.0764 108.911 27.5496C107.474 26.6381 106.826 25.661 106.014 24.4747C105.277 23.3963 100.43 17.7312 99.5524 16.7074C99.4742 16.6164 99.478 16.483 99.5599 16.3958L107.335 8.15668C107.335 8.15668 109.143 6.35642 111.46 5.80954V5.33093H102.217V5.85509C102.217 5.85509 103.996 5.97566 104.253 7.63261C104.462 8.97713 103.87 9.50624 103.87 9.50624L98.5067 15.3578L92.2887 8.07828C92.209 7.98469 92.1517 7.87412 92.1255 7.75473C92.0168 7.26201 91.9323 5.99674 93.8257 5.7412L93.8722 5.33093H81.5674V5.83234C81.5674 5.83234 83.8156 5.69556 85.4606 7.47302C87.1057 9.25049 94.7295 18.0696 94.7295 18.0696L87.2679 26.2051C87.2679 26.2051 85.0432 28.3699 82.3091 28.9397L82.2861 29.5777Z" fill="#28365C"/>
<path d="M116.634 19.3112L113.076 19.3519V17.5422L116.622 17.4555C116.622 17.4555 117.6 17.4419 117.6 18.454C117.6 19.3792 116.634 19.3112 116.634 19.3112ZM113.067 15.0286L116.427 14.956C116.427 14.956 117.354 14.9446 117.354 15.792C117.354 16.5667 116.439 16.5098 116.439 16.5098L113.067 16.5439V15.0286ZM118.93 17.9569C118.768 17.2505 117.898 16.9313 117.898 16.9313C117.898 16.9313 118.756 16.4756 118.745 15.6211C118.745 15.6211 118.872 13.9575 116.369 13.9575H111.677V20.3155H116.52C116.52 20.3155 117.679 20.2927 118.235 19.8368C118.791 19.3811 119.161 18.9823 118.93 17.9569Z" fill="#8D7F6D"/>
<path d="M121.893 17.8543L123.382 15.1995L124.882 17.8543H121.893ZM124.118 13.9575H122.657L119.113 20.3155H120.618L121.383 18.857H125.311L126.122 20.3155H127.651L124.118 13.9575Z" fill="#8D7F6D"/>
<path d="M128.058 13.9575V20.3155H129.367V15.5869L134.28 20.3155H135.647V13.9575H134.245V18.5607L129.484 13.9575H128.058Z" fill="#8D7F6D"/>
<path d="M136.822 13.9575V20.3155H138.224V18.3899L139.754 17.239L142.639 20.3155H144.458L140.75 16.4984C140.75 16.4984 144.18 13.9233 144.145 13.9575C144.11 13.9917 142.187 13.9575 142.187 13.9575L138.213 16.9883L138.201 13.9575H136.822Z" fill="#8D7F6D"/>
<path d="M117.26 0V11.1264" stroke="#28365C" stroke-miterlimit="10"/>
<path d="M117.26 23.1235V34.25" stroke="#28365C" stroke-miterlimit="10"/>
</svg>
