<svg width="63" height="35" viewBox="0 0 63 35" fill="none" xmlns="http://www.w3.org/2000/svg">
<path d="M0.773703 29.5773C0.843272 29.5545 10.506 29.5773 10.506 29.5773V29.0759C10.506 29.0759 8.67521 28.8253 8.46704 27.4353C8.25833 26.0451 9.16167 24.9741 9.16167 24.9741L14.0353 19.5154C14.1022 19.4407 14.2215 19.4446 14.2831 19.5235L18.9405 25.4981C18.9405 25.4981 20.5395 28.3012 17.6893 28.9848V29.5773H31.1061V29.0076C31.1061 29.0076 29.1362 29.0759 27.3986 27.5491C25.9617 26.6377 25.3131 25.6606 24.5018 24.4743C23.7649 23.3959 18.9175 17.7309 18.0398 16.7071C17.9617 16.616 17.9654 16.4827 18.0473 16.3955L25.8225 8.15642C25.8225 8.15642 27.6303 6.35617 29.9475 5.8093V5.33069H20.7049V5.85484C20.7049 5.85484 22.4837 5.97541 22.7406 7.63234C22.9493 8.97686 22.3574 9.50596 22.3574 9.50596L16.9941 15.3575L10.7762 8.07802C10.6965 7.98442 10.6392 7.87386 10.613 7.75447C10.5044 7.26175 10.4198 5.99649 12.3132 5.74096L12.3597 5.33069H0.0549927V5.83209C0.0549927 5.83209 2.30316 5.69531 3.94822 7.47276C5.59327 9.25021 13.217 18.0692 13.217 18.0692L5.75543 26.2047C5.75543 26.2047 3.5308 28.3695 0.796714 28.9392L0.773703 29.5773Z" fill="#28365C"/>
<path d="M35.1223 19.3105L31.5641 19.3513V17.5416L35.1095 17.4549C35.1095 17.4549 36.0883 17.4412 36.0883 18.4533C36.0883 19.3785 35.1223 19.3105 35.1223 19.3105ZM31.555 15.028L34.9147 14.9553C34.9147 14.9553 35.8421 14.944 35.8421 15.7914C35.8421 16.5661 34.9264 16.5092 34.9264 16.5092L31.555 16.5433V15.028ZM37.4176 17.9563C37.2554 17.2499 36.3863 16.9306 36.3863 16.9306C36.3863 16.9306 37.2437 16.475 37.2324 15.6205C37.2324 15.6205 37.3598 13.9569 34.8569 13.9569H30.1647V20.3149H35.0078C35.0078 20.3149 36.1664 20.292 36.7224 19.8361C37.2784 19.3805 37.6493 18.9817 37.4176 17.9563Z" fill="#8D7F6D"/>
<path d="M40.3798 17.8537L41.8686 15.1988L43.3686 17.8537H40.3798ZM42.6044 13.9569H41.144L37.5991 20.3149H39.105L39.8698 18.8564H43.7972L44.6085 20.3149H46.138L42.6044 13.9569Z" fill="#8D7F6D"/>
<path d="M46.5445 13.9569V20.3149H47.854V15.5863L52.7667 20.3149H54.1335V13.9569H52.7319V18.5601L47.9701 13.9569H46.5445Z" fill="#8D7F6D"/>
<path d="M55.3094 13.9572V20.3152H56.7115V18.3896L58.241 17.2387L61.126 20.3152H62.945L59.2375 16.4981C59.2375 16.4981 62.6667 13.9231 62.6319 13.9572C62.5972 13.9914 60.6738 13.9572 60.6738 13.9572L56.7003 16.9881L56.6885 13.9572H55.3094Z" fill="#8D7F6D"/>
<path d="M35.7482 0V11.1263" stroke="#28365C" stroke-miterlimit="10"/>
<path d="M35.7482 23.1233V34.2497" stroke="#28365C" stroke-miterlimit="10"/>
</svg>
