<svg width="565" height="456" viewBox="0 0 565 456" fill="none" xmlns="http://www.w3.org/2000/svg">
<rect x="49" y="11" width="467" height="410" rx="16" fill="white"/>
<g opacity="0.15" filter="url(#filter0_f_190_80642)">
<rect width="375.345" height="225.682" rx="20" transform="matrix(0.866044 0.499967 -0.866044 0.499967 218 129)" fill="#101828"/>
</g>
<g filter="url(#filter1_d_190_80642)">
<g clip-path="url(#clip0_190_80642)">
<rect width="375.345" height="225.682" rx="23.756" transform="matrix(0.866044 0.499967 -0.866044 0.499967 218 65)" fill="url(#paint0_linear_190_80642)"/>
<rect width="53.847" height="38.0096" rx="4.7512" transform="matrix(0.866044 0.499967 -0.866044 0.499967 334.242 300.763)" fill="white" fill-opacity="0.1"/>
<path fill-rule="evenodd" clip-rule="evenodd" d="M338.559 332.442C343.695 335.407 351.973 335.435 357.049 332.505C362.124 329.575 362.074 324.796 356.938 321.831C354.636 320.502 351.703 319.763 348.71 319.616C348.455 317.888 347.174 316.195 344.873 314.866C339.736 311.901 331.458 311.872 326.383 314.802C321.307 317.732 321.357 322.511 326.493 325.476C328.795 326.805 331.728 327.544 334.721 327.692C334.976 329.419 336.257 331.113 338.559 332.442Z" fill="#ED0006"/>
<path fill-rule="evenodd" clip-rule="evenodd" d="M338.559 332.442C343.695 335.407 351.973 335.435 357.049 332.505C362.124 329.575 362.074 324.796 356.938 321.831C354.636 320.502 351.703 319.763 348.71 319.616C349.024 321.743 347.784 323.923 344.983 325.54C342.183 327.157 338.407 327.873 334.721 327.692C334.977 329.419 336.257 331.113 338.559 332.442Z" fill="#F9A000"/>
<path fill-rule="evenodd" clip-rule="evenodd" d="M334.721 327.692C334.407 325.564 335.647 323.384 338.448 321.767C341.249 320.15 345.025 319.435 348.71 319.616C349.024 321.743 347.784 323.923 344.983 325.54C342.183 327.157 338.407 327.873 334.721 327.692Z" fill="#FF5E00"/>
<path d="M63.9952 176.626L73.9529 170.877L70.3649 170.374L72.2824 169.267L75.8457 169.784L77.5986 170.796L65.7481 177.638L63.9952 176.626ZM71.0212 180.672L72.5601 179.793L82.345 180.102C83.1295 180.131 83.7632 180.091 84.246 179.983C84.7343 179.879 85.1458 179.73 85.4804 179.537C85.9029 179.293 86.1882 179.021 86.3363 178.72C86.4899 178.416 86.5009 178.112 86.3692 177.807C86.2375 177.503 85.9577 177.228 85.5298 176.981C85.0909 176.727 84.5944 176.561 84.0403 176.482C83.4971 176.403 82.9594 176.406 82.4273 176.491C81.8951 176.577 81.4342 176.735 81.0447 176.967L79.2836 175.95C80.0517 175.506 80.8966 175.218 81.8183 175.085C82.751 174.952 83.6836 174.968 84.6163 175.133C85.5545 175.294 86.4158 175.601 87.2004 176.054C87.9465 176.485 88.4458 176.97 88.6982 177.508C88.956 178.043 88.9615 178.579 88.7146 179.114C88.4732 179.652 87.9767 180.139 87.2251 180.572C86.6819 180.886 86.1498 181.111 85.6286 181.247C85.1074 181.383 84.5423 181.462 83.9333 181.485C83.3243 181.507 82.6166 181.504 81.8101 181.475L74.2718 181.228L74.5763 180.834L80.6744 184.354L79.0367 185.3L71.0212 180.672ZM86.5653 189.912C85.9783 189.573 85.5366 189.191 85.2404 188.767C84.9496 188.339 84.8206 187.898 84.8536 187.441C84.892 186.989 85.1059 186.551 85.4955 186.13L87.6187 186.824C87.2676 187.21 87.1523 187.597 87.273 187.983C87.3992 188.366 87.7065 188.696 88.1947 188.971C88.6336 189.218 89.1164 189.38 89.6431 189.456C90.1698 189.532 90.6938 189.527 91.215 189.442C91.7417 189.353 92.2245 189.182 92.6634 188.928C93.3217 188.548 93.6591 188.116 93.6756 187.632C93.6975 187.15 93.3793 186.719 92.721 186.339C92.5344 186.232 92.315 186.137 92.0626 186.054C91.8157 185.975 91.5634 185.912 91.3055 185.864L91.8569 184.615L99.7325 184.895L99.4198 185.285L93.6591 181.959L95.2968 181.014L102.424 185.128L100.786 186.073L93.9719 185.997L94.515 185.665C95.2611 186.095 95.7412 186.566 95.9552 187.076C96.1746 187.582 96.1472 188.086 95.8729 188.586C95.6095 189.087 95.1267 189.54 94.4245 189.945C93.6674 190.382 92.817 190.667 91.8733 190.8C90.9352 190.937 89.9997 190.929 89.0671 190.777C88.1399 190.628 87.306 190.34 86.5653 189.912ZM100.379 197.63L102.444 196.437L97.0952 193.349L98.7247 192.409L110.732 189.924L112.698 191.059L100.692 193.544L104.074 195.497L107.283 193.644L109.028 194.651L105.818 196.504L106.995 197.183L105.366 198.124L104.189 197.445L102.123 198.637L100.379 197.63ZM115.574 206.402L125.532 200.654L121.944 200.15L123.861 199.043L127.425 199.561L129.178 200.573L117.327 207.414L115.574 206.402ZM122.6 210.449L124.139 209.57L133.924 209.879C134.709 209.907 135.342 209.868 135.825 209.76C136.313 209.655 136.725 209.507 137.059 209.313C137.482 209.07 137.767 208.797 137.915 208.496C138.069 208.192 138.08 207.888 137.948 207.584C137.817 207.28 137.537 207.004 137.109 206.757C136.67 206.504 136.173 206.338 135.619 206.259C135.076 206.179 134.539 206.183 134.006 206.268C133.474 206.354 133.013 206.512 132.624 206.743L130.863 205.726C131.631 205.283 132.476 204.995 133.397 204.862C134.33 204.729 135.263 204.745 136.195 204.909C137.134 205.071 137.995 205.378 138.779 205.831C139.526 206.262 140.025 206.746 140.277 207.285C140.535 207.82 140.541 208.355 140.294 208.891C140.052 209.429 139.556 209.915 138.804 210.349C138.261 210.663 137.729 210.888 137.208 211.024C136.686 211.16 136.121 211.239 135.512 211.261C134.903 211.283 134.196 211.28 133.389 211.252L125.851 211.005L126.155 210.61L132.253 214.131L130.616 215.076L122.6 210.449ZM138.144 219.689C137.557 219.35 137.116 218.968 136.819 218.544C136.529 218.116 136.4 217.674 136.433 217.218C136.471 216.765 136.685 216.328 137.075 215.907L139.198 216.6C138.847 216.987 138.731 217.373 138.852 217.76C138.978 218.143 139.286 218.472 139.774 218.748C140.213 218.995 140.696 219.156 141.222 219.232C141.749 219.308 142.273 219.304 142.794 219.218C143.321 219.13 143.804 218.958 144.242 218.705C144.901 218.325 145.238 217.893 145.255 217.408C145.277 216.927 144.958 216.496 144.3 216.116C144.114 216.008 143.894 215.913 143.642 215.831C143.395 215.752 143.142 215.688 142.885 215.641L143.436 214.391L151.312 214.672L150.999 215.061L145.238 211.736L146.876 210.79L154.003 214.904L152.365 215.85L145.551 215.774L146.094 215.441C146.84 215.872 147.32 216.342 147.534 216.852C147.754 217.359 147.726 217.863 147.452 218.363C147.189 218.863 146.706 219.316 146.004 219.722C145.246 220.159 144.396 220.444 143.452 220.577C142.514 220.713 141.579 220.705 140.646 220.553C139.719 220.404 138.885 220.116 138.144 219.689ZM151.958 227.407L154.023 226.214L148.674 223.126L150.304 222.185L162.311 219.701L164.277 220.836L152.271 223.321L155.653 225.273L158.862 223.421L160.607 224.428L157.398 226.281L158.574 226.96L156.945 227.901L155.768 227.221L153.703 228.414L151.958 227.407ZM167.153 236.179L177.111 230.43L173.523 229.927L175.44 228.82L179.004 229.338L180.757 230.35L168.906 237.191L167.153 236.179ZM174.179 240.225L175.718 239.347L185.503 239.655C186.288 239.684 186.921 239.644 187.404 239.537C187.892 239.432 188.304 239.283 188.639 239.09C189.061 238.846 189.346 238.574 189.494 238.273C189.648 237.969 189.659 237.665 189.527 237.361C189.396 237.057 189.116 236.781 188.688 236.534C188.249 236.281 187.753 236.114 187.198 236.035C186.655 235.956 186.118 235.959 185.585 236.045C185.053 236.13 184.592 236.289 184.203 236.52L182.442 235.503C183.21 235.06 184.055 234.771 184.976 234.638C185.909 234.505 186.842 234.521 187.774 234.686C188.713 234.847 189.574 235.155 190.359 235.608C191.105 236.038 191.604 236.523 191.856 237.061C192.114 237.597 192.12 238.132 191.873 238.667C191.631 239.206 191.135 239.692 190.383 240.126C189.84 240.439 189.308 240.664 188.787 240.8C188.265 240.937 187.7 241.016 187.091 241.038C186.482 241.06 185.775 241.057 184.968 241.028L177.43 240.781L177.734 240.387L183.833 243.907L182.195 244.853L174.179 240.225ZM189.723 249.465C189.136 249.126 188.695 248.745 188.398 248.32C188.108 247.893 187.979 247.451 188.012 246.995C188.05 246.542 188.264 246.105 188.654 245.683L190.777 246.377C190.426 246.763 190.31 247.15 190.431 247.536C190.557 247.92 190.865 248.249 191.353 248.524C191.792 248.771 192.275 248.933 192.801 249.009C193.328 249.085 193.852 249.08 194.373 248.995C194.9 248.906 195.383 248.735 195.821 248.482C196.48 248.102 196.817 247.669 196.834 247.185C196.856 246.703 196.537 246.273 195.879 245.892C195.693 245.785 195.473 245.69 195.221 245.607C194.974 245.528 194.721 245.465 194.464 245.417L195.015 244.168L202.891 244.448L202.578 244.838L196.817 241.512L198.455 240.567L205.582 244.681L203.944 245.626L197.13 245.55L197.673 245.218C198.419 245.649 198.899 246.119 199.113 246.629C199.333 247.136 199.305 247.639 199.031 248.14C198.768 248.64 198.285 249.093 197.583 249.498C196.825 249.935 195.975 250.221 195.031 250.354C194.093 250.49 193.158 250.482 192.225 250.33C191.298 250.181 190.464 249.893 189.723 249.465ZM203.537 257.183L205.603 255.991L200.253 252.903L201.883 251.962L213.89 249.477L215.856 250.613L203.85 253.097L207.232 255.05L210.441 253.197L212.186 254.204L208.977 256.057L210.153 256.737L208.524 257.677L207.347 256.998L205.282 258.19L203.537 257.183ZM218.732 265.955L228.69 260.207L225.102 259.703L227.02 258.596L230.583 259.114L232.336 260.126L220.485 266.967L218.732 265.955ZM225.758 270.002L227.297 269.123L237.082 269.432C237.867 269.46 238.5 269.421 238.983 269.313C239.471 269.209 239.883 269.06 240.218 268.867C240.64 268.623 240.925 268.35 241.073 268.049C241.227 267.745 241.238 267.441 241.106 267.137C240.975 266.833 240.695 266.558 240.267 266.311C239.828 266.057 239.332 265.891 238.777 265.812C238.234 265.733 237.697 265.736 237.164 265.821C236.632 265.907 236.171 266.065 235.782 266.296L234.021 265.28C234.789 264.836 235.634 264.548 236.555 264.415C237.488 264.282 238.421 264.298 239.354 264.463C240.292 264.624 241.153 264.931 241.938 265.384C242.684 265.815 243.183 266.3 243.435 266.838C243.693 267.373 243.699 267.908 243.452 268.444C243.21 268.982 242.714 269.468 241.962 269.902C241.419 270.216 240.887 270.441 240.366 270.577C239.845 270.713 239.279 270.792 238.67 270.814C238.061 270.837 237.354 270.833 236.547 270.805L229.009 270.558L229.314 270.164L235.412 273.684L233.774 274.629L225.758 270.002ZM241.302 279.242C240.715 278.903 240.274 278.521 239.978 278.097C239.687 277.669 239.558 277.227 239.591 276.771C239.629 276.318 239.843 275.881 240.233 275.46L242.356 276.154C242.005 276.54 241.89 276.926 242.01 277.313C242.136 277.696 242.444 278.025 242.932 278.301C243.371 278.548 243.854 278.71 244.38 278.786C244.907 278.862 245.431 278.857 245.952 278.771C246.479 278.683 246.962 278.512 247.401 278.258C248.059 277.878 248.396 277.446 248.413 276.961C248.435 276.48 248.117 276.049 247.458 275.669C247.272 275.561 247.052 275.466 246.8 275.384C246.553 275.305 246.301 275.241 246.043 275.194L246.594 273.944L254.47 274.225L254.157 274.614L248.396 271.289L250.034 270.343L257.161 274.458L255.523 275.403L248.709 275.327L249.252 274.994C249.998 275.425 250.478 275.896 250.692 276.405C250.912 276.912 250.884 277.416 250.61 277.916C250.347 278.417 249.864 278.87 249.162 279.275C248.405 279.712 247.554 279.997 246.611 280.13C245.672 280.266 244.737 280.258 243.804 280.106C242.877 279.958 242.043 279.669 241.302 279.242ZM255.116 286.96L257.182 285.767L251.832 282.679L253.462 281.738L265.469 279.254L267.436 280.389L255.429 282.874L258.811 284.827L262.021 282.974L263.765 283.981L260.556 285.834L261.732 286.513L260.103 287.454L258.926 286.774L256.861 287.967L255.116 286.96Z" fill="white"/>
<path d="M90.6603 158.514L99.5482 153.383L103.14 155.457C103.227 155.507 103.33 155.571 103.449 155.65C103.572 155.726 103.681 155.803 103.776 155.881C104.192 156.211 104.434 156.546 104.504 156.886C104.578 157.228 104.5 157.561 104.27 157.884C104.039 158.207 103.686 158.506 103.208 158.782C102.727 159.06 102.206 159.265 101.647 159.398C101.087 159.531 100.511 159.576 99.9185 159.533C99.3301 159.493 98.7499 159.353 98.178 159.113C98.0463 159.056 97.9105 158.992 97.7706 158.921C97.6348 158.852 97.5258 158.794 97.4435 158.746L95.1413 157.417L91.9503 159.259L90.6603 158.514ZM96.3633 156.711L98.6162 158.012C98.6985 158.06 98.7931 158.109 98.9001 158.162C99.0112 158.216 99.1223 158.264 99.2334 158.304C99.5585 158.421 99.8835 158.478 100.209 158.475C100.538 158.47 100.846 158.425 101.134 158.34C101.422 158.254 101.675 158.149 101.894 158.023C102.112 157.897 102.293 157.752 102.437 157.588C102.585 157.422 102.661 157.245 102.665 157.057C102.673 156.867 102.577 156.678 102.375 156.491C102.309 156.424 102.229 156.359 102.134 156.295C102.044 156.233 101.957 156.178 101.875 156.131L99.6222 154.83L96.3633 156.711ZM99.0168 163.339L107.905 158.208L109.195 158.952L105.362 161.165L109.806 163.731L113.639 161.518L114.935 162.266L106.047 167.397L104.751 166.649L108.59 164.432L104.146 161.867L100.307 164.083L99.0168 163.339ZM111.922 171.003C111.033 170.49 110.47 169.941 110.231 169.357C109.997 168.77 110.06 168.179 110.422 167.586C110.789 166.994 111.431 166.434 112.348 165.904C113.266 165.374 114.237 165.004 115.261 164.792C116.29 164.583 117.31 164.547 118.323 164.685C119.339 164.821 120.292 165.145 121.18 165.658C122.065 166.169 122.625 166.717 122.859 167.304C123.102 167.891 123.04 168.48 122.674 169.071C122.308 169.663 121.666 170.224 120.748 170.753C119.831 171.283 118.86 171.654 117.835 171.865C116.811 172.076 115.788 172.113 114.768 171.975C113.755 171.838 112.807 171.513 111.922 171.003ZM113.15 170.294C113.772 170.662 114.432 170.884 115.132 170.96C115.839 171.036 116.553 170.987 117.273 170.814C117.998 170.638 118.699 170.354 119.378 169.962C120.057 169.57 120.545 169.168 120.841 168.754C121.141 168.339 121.224 167.928 121.088 167.521C120.956 167.118 120.578 166.733 119.952 166.367C119.331 165.999 118.668 165.776 117.965 165.697C117.265 165.621 116.553 165.671 115.829 165.847C115.105 166.023 114.401 166.305 113.718 166.695C113.035 167.084 112.544 167.487 112.243 167.903C111.947 168.316 111.867 168.726 112.002 169.132C112.142 169.541 112.525 169.928 113.15 170.294ZM118.153 174.386L127.041 169.255L132.719 172.533L131.503 173.235L127.115 170.702L124.621 172.141L128.269 174.247L127.053 174.949L123.405 172.843L120.659 174.429L125.047 176.962L123.831 177.664L118.153 174.386ZM125.931 178.876L134.819 173.745L136.127 174.5L133.899 180.839L140.503 177.027L141.812 177.782L132.924 182.913L131.615 182.158L133.849 175.815L127.239 179.631L125.931 178.876ZM135.387 184.335L144.275 179.204L145.565 179.949L136.677 185.08L135.387 184.335ZM138.407 186.079L145.937 185.231L147.375 180.994L148.955 181.906L147.826 185.06L153.276 184.4L154.862 185.316L147.523 186.146L146.048 190.49L144.468 189.578L145.635 186.324L139.993 186.994L138.407 186.079ZM150.737 193.197L159.625 188.066L163.119 190.083C163.682 190.408 164.04 190.748 164.193 191.102C164.345 191.456 164.334 191.794 164.162 192.117C163.993 192.438 163.707 192.715 163.304 192.947C162.814 193.23 162.273 193.402 161.68 193.464C161.092 193.528 160.53 193.48 159.995 193.318L160.286 193.136C160.714 193.545 160.876 193.955 160.773 194.366C160.674 194.774 160.356 195.134 159.816 195.445C159.294 195.747 158.734 195.949 158.138 196.051C157.545 196.155 156.94 196.155 156.323 196.051C155.714 195.946 155.128 195.731 154.564 195.406L150.737 193.197ZM153.274 193.243L155.595 194.583C155.887 194.752 156.204 194.87 156.545 194.939C156.891 195.011 157.232 195.025 157.57 194.982C157.915 194.939 158.232 194.835 158.52 194.668C158.788 194.514 158.969 194.341 159.063 194.148C159.166 193.956 159.168 193.76 159.07 193.56C158.979 193.361 158.786 193.175 158.489 193.004L156.089 191.618L153.274 193.243ZM157.304 190.916L159.471 192.167C159.71 192.305 159.971 192.401 160.255 192.456C160.547 192.51 160.839 192.517 161.131 192.477C161.432 192.437 161.711 192.342 161.971 192.192C162.316 191.993 162.485 191.762 162.477 191.501C162.468 191.239 162.271 190.997 161.884 190.774L159.718 189.523L157.304 190.916ZM158.452 197.651L170.229 194.187L172.087 195.26L166.087 202.058L164.748 201.285L170.198 195.068L170.531 195.26L159.792 198.424L158.452 197.651ZM161.958 197.359L163.168 196.66L167.809 199.34L166.6 200.038L161.958 197.359ZM167.812 203.054L176.7 197.923L177.99 198.668L173.842 201.062L181.712 200.816L183.316 201.743L175.046 201.978L174.719 207.041L173.064 206.086L173.348 201.347L169.102 203.799L167.812 203.054ZM176.205 207.899L185.092 202.768L190.771 206.046L189.555 206.748L185.166 204.215L182.673 205.654L186.321 207.76L185.105 208.462L181.457 206.356L178.71 207.942L183.099 210.475L181.883 211.177L176.205 207.899ZM183.982 212.389L192.87 207.258L196.462 209.332C196.549 209.382 196.652 209.446 196.771 209.524C196.894 209.6 197.004 209.678 197.098 209.756C197.514 210.086 197.757 210.421 197.826 210.761C197.901 211.103 197.822 211.436 197.592 211.759C197.362 212.082 197.008 212.381 196.53 212.656C195.823 213.065 195.031 213.313 194.154 213.401C193.282 213.487 192.42 213.357 191.568 213.013L190.982 212.746L188.463 211.292L185.272 213.134L183.982 212.389ZM189.179 215.389L191.043 212.289L192.679 212.849L190.654 216.241L189.179 215.389ZM189.685 210.586L191.938 211.887C192.021 211.934 192.115 211.984 192.222 212.037C192.333 212.091 192.444 212.139 192.555 212.179C192.881 212.295 193.206 212.352 193.531 212.35C193.86 212.345 194.168 212.3 194.457 212.215C194.745 212.129 194.998 212.023 195.216 211.898C195.434 211.772 195.615 211.627 195.759 211.463C195.907 211.297 195.983 211.12 195.987 210.932C195.995 210.742 195.899 210.553 195.697 210.365C195.631 210.299 195.551 210.234 195.456 210.169C195.366 210.108 195.279 210.053 195.197 210.005L192.944 208.705L189.685 210.586Z" fill="white"/>
<path d="M253.632 252.812C253.027 252.462 252.624 252.078 252.422 251.657C252.224 251.234 252.224 250.811 252.422 250.389C252.624 249.968 253.027 249.583 253.632 249.234L256.693 247.467C257.298 247.118 257.964 246.885 258.693 246.768C259.425 246.654 260.156 246.656 260.884 246.772C261.616 246.886 262.285 247.118 262.89 247.467C263.495 247.816 263.896 248.202 264.093 248.625C264.295 249.045 264.295 249.466 264.093 249.886C263.896 250.309 263.495 250.695 262.89 251.044L259.828 252.812C259.224 253.161 258.555 253.392 257.823 253.506C257.094 253.623 256.364 253.624 255.631 253.51C254.903 253.394 254.237 253.161 253.632 252.812ZM254.866 252.099C255.195 252.289 255.572 252.416 255.996 252.48C256.428 252.544 256.858 252.546 257.286 252.484C257.718 252.42 258.1 252.291 258.434 252.099L261.668 250.232C261.997 250.042 262.215 249.823 262.322 249.576C262.433 249.327 262.431 249.079 262.316 248.832C262.209 248.584 261.991 248.366 261.662 248.176C261.332 247.986 260.952 247.859 260.52 247.795C260.096 247.731 259.668 247.731 259.236 247.795C258.808 247.856 258.429 247.982 258.1 248.172L254.866 250.039C254.533 250.232 254.311 250.453 254.199 250.702C254.092 250.949 254.092 251.196 254.199 251.443C254.315 251.69 254.537 251.909 254.866 252.099ZM262.126 257.715C261.55 257.383 261.167 257.005 260.978 256.582C260.793 256.157 260.803 255.728 261.009 255.296C261.218 254.866 261.628 254.475 262.237 254.124L265.07 252.488C265.716 252.115 266.417 251.865 267.175 251.736C267.936 251.61 268.691 251.607 269.44 251.726C270.193 251.847 270.882 252.088 271.507 252.449C271.976 252.72 272.328 253.025 272.563 253.365C272.797 253.704 272.89 254.062 272.841 254.437L271.014 254.401C271.063 254.178 271.024 253.956 270.896 253.735C270.777 253.514 270.573 253.321 270.285 253.154C269.915 252.941 269.501 252.804 269.045 252.745C268.592 252.683 268.144 252.688 267.699 252.759C267.259 252.832 266.876 252.963 266.551 253.151L264.922 254.091L264.953 253.781C265.541 253.736 266.121 253.767 266.693 253.874C267.265 253.981 267.767 254.159 268.199 254.409C268.751 254.727 269.113 255.086 269.285 255.485C269.466 255.884 269.46 256.282 269.267 256.678C269.078 257.077 268.707 257.436 268.156 257.754C267.6 258.075 266.956 258.285 266.224 258.385C265.5 258.485 264.772 258.478 264.039 258.364C263.315 258.25 262.677 258.034 262.126 257.715ZM263.366 256.999C263.687 257.184 264.058 257.308 264.477 257.37C264.897 257.431 265.317 257.431 265.736 257.37C266.156 257.308 266.526 257.184 266.847 256.999C267.168 256.814 267.382 256.6 267.489 256.358C267.6 256.118 267.602 255.877 267.496 255.634C267.389 255.392 267.175 255.178 266.854 254.993C266.533 254.808 266.16 254.683 265.736 254.619C265.317 254.557 264.897 254.557 264.477 254.619C264.058 254.681 263.687 254.804 263.366 254.989C263.05 255.172 262.838 255.385 262.731 255.627C262.624 255.87 262.622 256.113 262.724 256.358C262.831 256.6 263.045 256.814 263.366 256.999ZM278.674 256.793L279.977 257.545L268.719 261.308L267.416 260.556L278.674 256.793ZM273.076 263.816L274.23 263.157L281.569 263.388C282.157 263.41 282.632 263.38 282.994 263.299C283.361 263.221 283.669 263.109 283.92 262.964C284.237 262.781 284.451 262.577 284.562 262.351C284.677 262.123 284.686 261.895 284.587 261.667C284.488 261.439 284.278 261.233 283.957 261.047C283.628 260.857 283.256 260.732 282.84 260.673C282.433 260.614 282.03 260.616 281.63 260.68C281.231 260.744 280.886 260.863 280.594 261.037L279.273 260.274C279.849 259.941 280.482 259.725 281.174 259.626C281.873 259.526 282.573 259.538 283.272 259.661C283.976 259.782 284.622 260.013 285.21 260.352C285.77 260.675 286.144 261.039 286.334 261.443C286.527 261.844 286.531 262.246 286.346 262.647C286.165 263.051 285.793 263.416 285.229 263.741C284.821 263.976 284.422 264.145 284.031 264.247C283.641 264.349 283.217 264.408 282.76 264.425C282.303 264.442 281.772 264.439 281.168 264.418L275.514 264.233L275.742 263.937L280.316 266.577L279.088 267.286L273.076 263.816ZM284.703 270.535L286.252 269.641L282.24 267.325L283.462 266.619L292.467 264.756L293.942 265.607L284.937 267.471L287.474 268.935L289.881 267.546L291.19 268.301L288.782 269.691L289.665 270.2L288.443 270.906L287.56 270.396L286.011 271.291L284.703 270.535Z" fill="white"/>
<path d="M205.129 99.3229L202.814 97.9867L218.999 93.5092L221.676 95.0546L213.925 104.401L211.611 103.065L217.929 95.726L217.836 95.672L205.129 99.3229ZM209.898 96.6573L216.211 100.301L214.469 101.307L208.157 97.6628L209.898 96.6573ZM215.502 105.311L227.472 98.4009L231.961 100.992C232.881 101.523 233.481 102.068 233.761 102.625C234.046 103.186 234.048 103.731 233.767 104.262C233.494 104.793 232.978 105.278 232.218 105.716C231.451 106.159 230.607 106.46 229.688 106.617C228.768 106.775 227.821 106.77 226.847 106.604C225.877 106.435 224.93 106.084 224.006 105.551L221.031 103.833L222.814 102.804L225.497 104.353C226.035 104.663 226.568 104.864 227.098 104.954C227.628 105.044 228.139 105.041 228.63 104.947C229.124 104.855 229.584 104.686 230.009 104.441C230.434 104.196 230.724 103.931 230.88 103.648C231.04 103.367 231.036 103.074 230.868 102.771C230.708 102.467 230.358 102.159 229.816 101.846L227.829 100.699L217.671 106.563L215.502 105.311ZM226.094 111.426L238.065 104.516L245.85 109.01L244.032 110.06L238.415 106.817L235.166 108.693L240.379 111.703L238.561 112.752L233.348 109.743L230.081 111.629L235.744 114.898L233.926 115.948L226.094 111.426ZM249.874 111.333L248.126 115.386L248.22 115.44L255.251 114.438L257.724 115.865L248.05 117.191L245.812 122.809L243.299 121.358L244.988 117.306L244.894 117.252L237.875 118.227L235.373 116.783L245.14 115.511L247.39 109.899L249.874 111.333ZM251.538 126.115L263.509 119.205L268.091 121.85C268.956 122.349 269.538 122.843 269.838 123.331C270.146 123.819 270.209 124.281 270.026 124.715C269.846 125.151 269.461 125.54 268.868 125.882C268.381 126.163 267.871 126.35 267.337 126.442C266.807 126.532 266.277 126.548 265.747 126.49C265.217 126.431 264.711 126.316 264.227 126.145L264.111 126.213C264.512 126.472 264.789 126.782 264.941 127.144C265.1 127.506 265.091 127.883 264.911 128.275C264.732 128.666 264.339 129.037 263.731 129.388C263.111 129.746 262.404 129.981 261.609 130.093C260.818 130.203 259.978 130.166 259.09 129.982C258.201 129.797 257.299 129.441 256.384 128.912L251.538 126.115ZM255.519 126.321L257.851 127.667C258.638 128.122 259.355 128.362 260.002 128.389C260.656 128.416 261.221 128.293 261.697 128.018C262.051 127.813 262.283 127.578 262.392 127.313C262.505 127.045 262.482 126.771 262.322 126.49C262.166 126.206 261.864 125.935 261.416 125.676L259.026 124.296L255.519 126.321ZM260.586 123.395L262.731 124.634C263.105 124.85 263.511 125.005 263.947 125.099C264.387 125.192 264.82 125.214 265.244 125.167C265.677 125.12 266.069 124.995 266.419 124.792C266.883 124.525 267.101 124.21 267.074 123.848C267.051 123.488 266.719 123.123 266.08 122.754L263.888 121.489L260.586 123.395ZM263.893 133.247L261.578 131.911L277.763 127.434L280.44 128.979L272.689 138.325L270.375 136.989L276.693 129.65L276.599 129.596L263.893 133.247ZM268.662 130.582L274.975 134.226L273.233 135.231L266.92 131.587L268.662 130.582ZM296.073 138.004L284.103 144.914L282.174 143.801L284.687 135.838L284.588 135.78L276.434 140.488L274.266 139.236L286.236 132.325L288.177 133.446L285.652 141.409L285.757 141.469L293.916 136.759L296.073 138.004ZM286.466 146.279L298.436 139.368L300.604 140.62L295.104 143.795L295.25 143.879L305.42 143.4L308.068 144.929L298.068 145.357L296.139 151.863L293.532 150.358L295.092 145.334L292.199 145.472L288.634 147.53L286.466 146.279Z" fill="white"/>
<g clip-path="url(#clip1_190_80642)">
<path d="M495.3 250.367C493.884 253.418 491.101 256.201 487.232 258.435C483.362 260.668 478.543 262.275 473.257 263.092M488.026 248.967C486.921 251.347 484.751 253.517 481.732 255.26C478.714 257.002 474.955 258.255 470.832 258.893M481.17 247.58C480.351 249.313 478.759 250.895 476.554 252.168C474.348 253.442 471.607 254.361 468.606 254.834M474.139 246.295C473.735 247.436 472.777 248.47 471.374 249.28C469.971 250.09 468.179 250.643 466.203 250.876" stroke="white" stroke-width="3.05435" stroke-linecap="round"/>
</g>
</g>
<rect y="0.593862" width="374.157" height="224.494" rx="23.1621" transform="matrix(0.866044 0.499967 -0.866044 0.499967 218.514 65.297)" stroke="url(#paint1_linear_190_80642)" stroke-width="1.1878"/>
</g>
<g filter="url(#filter2_bd_190_80642)">
<g clip-path="url(#clip2_190_80642)">
<rect width="375.345" height="225.682" rx="23.756" transform="matrix(0.866044 0.499967 -0.866044 0.499967 218 1)" fill="url(#paint2_linear_190_80642)"/>
<rect width="53.847" height="38.0096" rx="4.7512" transform="matrix(0.866044 0.499967 -0.866044 0.499967 334.242 236.763)" fill="white" fill-opacity="0.1"/>
<path opacity="0.5" fill-rule="evenodd" clip-rule="evenodd" d="M338.559 268.442C343.695 271.407 351.973 271.435 357.049 268.505C362.124 265.575 362.074 260.796 356.938 257.831C354.636 256.502 351.703 255.763 348.71 255.616C348.455 253.888 347.174 252.195 344.873 250.866C339.736 247.901 331.458 247.872 326.383 250.802C321.307 253.732 321.357 258.511 326.493 261.476C328.795 262.805 331.728 263.544 334.721 263.692C334.976 265.419 336.257 267.113 338.559 268.442Z" fill="white"/>
<path opacity="0.5" fill-rule="evenodd" clip-rule="evenodd" d="M338.559 268.442C343.695 271.407 351.973 271.435 357.049 268.505C362.124 265.575 362.074 260.796 356.938 257.831C354.636 256.502 351.703 255.763 348.71 255.616C349.024 257.743 347.784 259.923 344.983 261.54C342.183 263.157 338.407 263.873 334.721 263.692C334.977 265.419 336.257 267.113 338.559 268.442Z" fill="white"/>
<path fill-rule="evenodd" clip-rule="evenodd" d="M334.721 263.692C334.407 261.564 335.647 259.384 338.448 257.767C341.249 256.15 345.025 255.435 348.71 255.616C349.024 257.743 347.784 259.923 344.983 261.54C342.183 263.157 338.407 263.873 334.721 263.692Z" fill="white"/>
<path d="M63.9952 112.626L73.9529 106.877L70.3649 106.374L72.2824 105.267L75.8457 105.784L77.5986 106.796L65.7481 113.638L63.9952 112.626ZM71.0212 116.672L72.5601 115.793L82.345 116.102C83.1295 116.131 83.7632 116.091 84.246 115.983C84.7343 115.879 85.1458 115.73 85.4804 115.537C85.9029 115.293 86.1882 115.021 86.3363 114.72C86.4899 114.416 86.5009 114.112 86.3692 113.807C86.2375 113.503 85.9577 113.228 85.5298 112.981C85.0909 112.727 84.5944 112.561 84.0403 112.482C83.4971 112.403 82.9594 112.406 82.4273 112.491C81.8951 112.577 81.4342 112.735 81.0447 112.967L79.2836 111.95C80.0517 111.506 80.8966 111.218 81.8183 111.085C82.751 110.952 83.6836 110.968 84.6163 111.133C85.5545 111.294 86.4158 111.601 87.2004 112.054C87.9465 112.485 88.4458 112.97 88.6982 113.508C88.956 114.043 88.9615 114.579 88.7146 115.114C88.4732 115.652 87.9767 116.139 87.2251 116.572C86.6819 116.886 86.1498 117.111 85.6286 117.247C85.1074 117.383 84.5423 117.462 83.9333 117.485C83.3243 117.507 82.6166 117.504 81.8101 117.475L74.2718 117.228L74.5763 116.834L80.6744 120.354L79.0367 121.3L71.0212 116.672ZM86.5653 125.912C85.9783 125.573 85.5366 125.191 85.2404 124.767C84.9496 124.339 84.8206 123.898 84.8536 123.441C84.892 122.989 85.1059 122.551 85.4955 122.13L87.6187 122.824C87.2676 123.21 87.1523 123.597 87.273 123.983C87.3992 124.366 87.7065 124.696 88.1947 124.971C88.6336 125.218 89.1164 125.38 89.6431 125.456C90.1698 125.532 90.6938 125.527 91.215 125.442C91.7417 125.353 92.2245 125.182 92.6634 124.928C93.3217 124.548 93.6591 124.116 93.6756 123.632C93.6975 123.15 93.3793 122.719 92.721 122.339C92.5344 122.232 92.315 122.137 92.0626 122.054C91.8157 121.975 91.5634 121.912 91.3055 121.864L91.8569 120.615L99.7325 120.895L99.4198 121.285L93.6591 117.959L95.2968 117.014L102.424 121.128L100.786 122.073L93.9719 121.997L94.515 121.665C95.2611 122.095 95.7412 122.566 95.9552 123.076C96.1746 123.582 96.1472 124.086 95.8729 124.586C95.6095 125.087 95.1267 125.54 94.4245 125.945C93.6674 126.382 92.817 126.667 91.8733 126.8C90.9352 126.937 89.9997 126.929 89.0671 126.777C88.1399 126.628 87.306 126.34 86.5653 125.912ZM100.379 133.63L102.444 132.437L97.0952 129.349L98.7247 128.409L110.732 125.924L112.698 127.059L100.692 129.544L104.074 131.497L107.283 129.644L109.028 130.651L105.818 132.504L106.995 133.183L105.366 134.124L104.189 133.445L102.123 134.637L100.379 133.63ZM115.574 142.402L125.532 136.654L121.944 136.15L123.861 135.043L127.425 135.561L129.178 136.573L117.327 143.414L115.574 142.402ZM122.6 146.449L124.139 145.57L133.924 145.879C134.709 145.907 135.342 145.868 135.825 145.76C136.313 145.655 136.725 145.507 137.059 145.313C137.482 145.07 137.767 144.797 137.915 144.496C138.069 144.192 138.08 143.888 137.948 143.584C137.817 143.28 137.537 143.004 137.109 142.757C136.67 142.504 136.173 142.338 135.619 142.259C135.076 142.179 134.539 142.183 134.006 142.268C133.474 142.354 133.013 142.512 132.624 142.743L130.863 141.726C131.631 141.283 132.476 140.995 133.397 140.862C134.33 140.729 135.263 140.745 136.195 140.909C137.134 141.071 137.995 141.378 138.779 141.831C139.526 142.262 140.025 142.746 140.277 143.285C140.535 143.82 140.541 144.355 140.294 144.891C140.052 145.429 139.556 145.915 138.804 146.349C138.261 146.663 137.729 146.888 137.208 147.024C136.686 147.16 136.121 147.239 135.512 147.261C134.903 147.283 134.196 147.28 133.389 147.252L125.851 147.005L126.155 146.61L132.253 150.131L130.616 151.076L122.6 146.449ZM138.144 155.689C137.557 155.35 137.116 154.968 136.819 154.544C136.529 154.116 136.4 153.674 136.433 153.218C136.471 152.765 136.685 152.328 137.075 151.907L139.198 152.6C138.847 152.987 138.731 153.373 138.852 153.76C138.978 154.143 139.286 154.472 139.774 154.748C140.213 154.995 140.696 155.156 141.222 155.232C141.749 155.308 142.273 155.304 142.794 155.218C143.321 155.13 143.804 154.958 144.242 154.705C144.901 154.325 145.238 153.893 145.255 153.408C145.277 152.927 144.958 152.496 144.3 152.116C144.114 152.008 143.894 151.913 143.642 151.831C143.395 151.752 143.142 151.688 142.885 151.641L143.436 150.391L151.312 150.672L150.999 151.061L145.238 147.736L146.876 146.79L154.003 150.904L152.365 151.85L145.551 151.774L146.094 151.441C146.84 151.872 147.32 152.342 147.534 152.852C147.754 153.359 147.726 153.863 147.452 154.363C147.189 154.863 146.706 155.316 146.004 155.722C145.246 156.159 144.396 156.444 143.452 156.577C142.514 156.713 141.579 156.705 140.646 156.553C139.719 156.404 138.885 156.116 138.144 155.689ZM151.958 163.407L154.023 162.214L148.674 159.126L150.304 158.185L162.311 155.701L164.277 156.836L152.271 159.321L155.653 161.273L158.862 159.421L160.607 160.428L157.398 162.281L158.574 162.96L156.945 163.901L155.768 163.221L153.703 164.414L151.958 163.407ZM167.153 172.179L177.111 166.43L173.523 165.927L175.44 164.82L179.004 165.338L180.757 166.35L168.906 173.191L167.153 172.179ZM174.179 176.225L175.718 175.347L185.503 175.655C186.288 175.684 186.921 175.644 187.404 175.537C187.892 175.432 188.304 175.283 188.639 175.09C189.061 174.846 189.346 174.574 189.494 174.273C189.648 173.969 189.659 173.665 189.527 173.361C189.396 173.057 189.116 172.781 188.688 172.534C188.249 172.281 187.753 172.114 187.198 172.035C186.655 171.956 186.118 171.959 185.585 172.045C185.053 172.13 184.592 172.289 184.203 172.52L182.442 171.503C183.21 171.06 184.055 170.771 184.976 170.638C185.909 170.505 186.842 170.521 187.774 170.686C188.713 170.847 189.574 171.155 190.359 171.608C191.105 172.038 191.604 172.523 191.856 173.061C192.114 173.597 192.12 174.132 191.873 174.667C191.631 175.206 191.135 175.692 190.383 176.126C189.84 176.439 189.308 176.664 188.787 176.8C188.265 176.937 187.7 177.016 187.091 177.038C186.482 177.06 185.775 177.057 184.968 177.028L177.43 176.781L177.734 176.387L183.833 179.907L182.195 180.853L174.179 176.225ZM189.723 185.465C189.136 185.126 188.695 184.745 188.398 184.32C188.108 183.893 187.979 183.451 188.012 182.995C188.05 182.542 188.264 182.105 188.654 181.683L190.777 182.377C190.426 182.763 190.31 183.15 190.431 183.536C190.557 183.92 190.865 184.249 191.353 184.524C191.792 184.771 192.275 184.933 192.801 185.009C193.328 185.085 193.852 185.08 194.373 184.995C194.9 184.906 195.383 184.735 195.821 184.482C196.48 184.102 196.817 183.669 196.834 183.185C196.856 182.703 196.537 182.273 195.879 181.892C195.693 181.785 195.473 181.69 195.221 181.607C194.974 181.528 194.721 181.465 194.464 181.417L195.015 180.168L202.891 180.448L202.578 180.838L196.817 177.512L198.455 176.567L205.582 180.681L203.944 181.626L197.13 181.55L197.673 181.218C198.419 181.649 198.899 182.119 199.113 182.629C199.333 183.136 199.305 183.639 199.031 184.14C198.768 184.64 198.285 185.093 197.583 185.498C196.825 185.935 195.975 186.221 195.031 186.354C194.093 186.49 193.158 186.482 192.225 186.33C191.298 186.181 190.464 185.893 189.723 185.465ZM203.537 193.183L205.603 191.991L200.253 188.903L201.883 187.962L213.89 185.477L215.856 186.613L203.85 189.097L207.232 191.05L210.441 189.197L212.186 190.204L208.977 192.057L210.153 192.737L208.524 193.677L207.347 192.998L205.282 194.19L203.537 193.183ZM218.732 201.955L228.69 196.207L225.102 195.703L227.02 194.596L230.583 195.114L232.336 196.126L220.485 202.967L218.732 201.955ZM225.758 206.002L227.297 205.123L237.082 205.432C237.867 205.46 238.5 205.421 238.983 205.313C239.471 205.209 239.883 205.06 240.218 204.867C240.64 204.623 240.925 204.35 241.073 204.049C241.227 203.745 241.238 203.441 241.106 203.137C240.975 202.833 240.695 202.558 240.267 202.311C239.828 202.057 239.332 201.891 238.777 201.812C238.234 201.733 237.697 201.736 237.164 201.821C236.632 201.907 236.171 202.065 235.782 202.296L234.021 201.28C234.789 200.836 235.634 200.548 236.555 200.415C237.488 200.282 238.421 200.298 239.354 200.463C240.292 200.624 241.153 200.931 241.938 201.384C242.684 201.815 243.183 202.3 243.435 202.838C243.693 203.373 243.699 203.908 243.452 204.444C243.21 204.982 242.714 205.468 241.962 205.902C241.419 206.216 240.887 206.441 240.366 206.577C239.845 206.713 239.279 206.792 238.67 206.814C238.061 206.837 237.354 206.833 236.547 206.805L229.009 206.558L229.314 206.164L235.412 209.684L233.774 210.629L225.758 206.002ZM241.302 215.242C240.715 214.903 240.274 214.521 239.978 214.097C239.687 213.669 239.558 213.227 239.591 212.771C239.629 212.318 239.843 211.881 240.233 211.46L242.356 212.154C242.005 212.54 241.89 212.926 242.01 213.313C242.136 213.696 242.444 214.025 242.932 214.301C243.371 214.548 243.854 214.71 244.38 214.786C244.907 214.862 245.431 214.857 245.952 214.771C246.479 214.683 246.962 214.512 247.401 214.258C248.059 213.878 248.396 213.446 248.413 212.961C248.435 212.48 248.117 212.049 247.458 211.669C247.272 211.561 247.052 211.466 246.8 211.384C246.553 211.305 246.301 211.241 246.043 211.194L246.594 209.944L254.47 210.225L254.157 210.614L248.396 207.289L250.034 206.343L257.161 210.458L255.523 211.403L248.709 211.327L249.252 210.994C249.998 211.425 250.478 211.896 250.692 212.405C250.912 212.912 250.884 213.416 250.61 213.916C250.347 214.417 249.864 214.87 249.162 215.275C248.405 215.712 247.554 215.997 246.611 216.13C245.672 216.266 244.737 216.258 243.804 216.106C242.877 215.958 242.043 215.669 241.302 215.242ZM255.116 222.96L257.182 221.767L251.832 218.679L253.462 217.738L265.469 215.254L267.436 216.389L255.429 218.874L258.811 220.827L262.021 218.974L263.765 219.981L260.556 221.834L261.732 222.513L260.103 223.454L258.926 222.774L256.861 223.967L255.116 222.96Z" fill="white"/>
<path d="M94.1846 96.7628C93.2958 96.2497 92.7321 95.7009 92.4934 95.1166C92.2589 94.5298 92.3227 93.9395 92.6848 93.3457C93.051 92.7542 93.6929 92.1936 94.6105 91.6639C95.5281 91.1341 96.4991 90.7636 97.5237 90.5522C98.5524 90.3431 99.5729 90.3075 100.585 90.4453C101.601 90.5807 102.554 90.9049 103.443 91.418C104.327 91.9287 104.887 92.4775 105.122 93.0642C105.364 93.6509 105.303 94.24 104.936 94.8315C104.57 95.423 103.928 95.9836 103.011 96.5133C102.093 97.0431 101.122 97.4136 100.097 97.6251C99.0729 97.8365 98.0504 97.8733 97.0299 97.7355C96.0177 97.5977 95.0693 97.2735 94.1846 96.7628ZM95.4128 96.0537C96.0342 96.4219 96.6946 96.644 97.3941 96.72C98.1018 96.796 98.8157 96.7473 99.5358 96.5739C100.26 96.3981 100.962 96.1143 101.641 95.7223C102.319 95.3304 102.807 94.9277 103.103 94.5144C103.404 94.0987 103.486 93.6878 103.35 93.2815C103.219 92.8777 102.84 92.4929 102.215 92.1271C101.593 91.7589 100.931 91.5356 100.227 91.4572C99.5276 91.3812 98.8157 91.4311 98.0915 91.6069C97.3673 91.7826 96.6637 92.0653 95.9807 92.4549C95.2976 92.8445 94.8059 93.2471 94.5055 93.6628C94.2093 94.0761 94.129 94.4859 94.2648 94.8921C94.4047 95.3007 94.7874 95.6879 95.4128 96.0537ZM100.539 100.217L109.426 95.0862L110.716 95.8309L103.044 100.26L107.069 102.583L105.853 103.285L100.539 100.217ZM107.641 104.318L116.529 99.1866L117.819 99.9313L108.931 105.062L107.641 104.318ZM113.488 107.693L119.488 100.894L120.827 101.668L115.704 107.468L125.783 104.529L127.122 105.302L115.346 108.765L113.488 107.693ZM119.906 111.398L128.794 106.267L130.084 107.012L121.196 112.143L119.906 111.398ZM123.05 113.213L134.826 109.749L136.684 110.822L130.684 117.62L129.345 116.847L134.795 110.629L135.128 110.822L124.389 113.986L123.05 113.213ZM126.555 112.921L127.765 112.222L132.406 114.902L131.197 115.6L126.555 112.921ZM135.497 120.399L144.385 115.268L147.977 117.342C148.064 117.392 148.167 117.456 148.286 117.534C148.41 117.61 148.519 117.687 148.613 117.766C149.029 118.096 149.272 118.431 149.342 118.771C149.416 119.113 149.337 119.445 149.107 119.768C148.877 120.091 148.523 120.391 148.045 120.666C147.338 121.075 146.546 121.323 145.669 121.411C144.797 121.496 143.935 121.367 143.083 121.022L142.497 120.755L139.978 119.301L136.787 121.144L135.497 120.399ZM140.694 123.399L142.558 120.299L144.194 120.859L142.17 124.251L140.694 123.399ZM141.2 118.596L143.453 119.896C143.536 119.944 143.63 119.994 143.737 120.046C143.848 120.101 143.959 120.148 144.071 120.189C144.396 120.305 144.721 120.362 145.046 120.36C145.375 120.355 145.684 120.31 145.972 120.224C146.26 120.139 146.513 120.033 146.731 119.907C146.949 119.781 147.13 119.636 147.274 119.472C147.422 119.306 147.498 119.129 147.502 118.942C147.51 118.752 147.414 118.563 147.212 118.375C147.146 118.308 147.066 118.243 146.971 118.179C146.881 118.117 146.794 118.063 146.712 118.015L144.459 116.715L141.2 118.596ZM144.143 125.39L153.031 120.259L154.321 121.004L150.488 123.217L154.932 125.782L158.765 123.569L160.061 124.318L151.173 129.449L149.877 128.7L153.716 126.484L149.272 123.919L145.433 126.135L144.143 125.39ZM155.666 132.042L159.339 129.922L161.548 125.176L163.054 126.045L161.474 129.445L167.362 128.533L168.868 129.402L160.647 130.678L156.975 132.798L155.666 132.042ZM161.459 135.386L170.347 130.256L176.025 133.534L174.809 134.236L170.421 131.702L167.927 133.142L171.575 135.248L170.359 135.949L166.711 133.844L163.965 135.429L168.353 137.963L167.137 138.665L161.459 135.386Z" fill="white"/>
<path d="M253.632 188.812C253.027 188.462 252.624 188.078 252.422 187.657C252.224 187.234 252.224 186.811 252.422 186.389C252.624 185.968 253.027 185.583 253.632 185.234L256.693 183.467C257.298 183.118 257.964 182.885 258.693 182.768C259.425 182.654 260.156 182.656 260.884 182.772C261.616 182.886 262.285 183.118 262.89 183.467C263.495 183.816 263.896 184.202 264.093 184.625C264.295 185.045 264.295 185.466 264.093 185.886C263.896 186.309 263.495 186.695 262.89 187.044L259.828 188.812C259.224 189.161 258.555 189.392 257.823 189.506C257.094 189.623 256.364 189.624 255.631 189.51C254.903 189.394 254.237 189.161 253.632 188.812ZM254.866 188.099C255.195 188.289 255.572 188.416 255.996 188.48C256.428 188.544 256.858 188.546 257.286 188.484C257.718 188.42 258.1 188.291 258.434 188.099L261.668 186.232C261.997 186.042 262.215 185.823 262.322 185.576C262.433 185.327 262.431 185.079 262.316 184.832C262.209 184.584 261.991 184.366 261.662 184.176C261.332 183.986 260.952 183.859 260.52 183.795C260.096 183.731 259.668 183.731 259.236 183.795C258.808 183.856 258.429 183.982 258.1 184.172L254.866 186.039C254.533 186.232 254.311 186.453 254.199 186.702C254.092 186.949 254.092 187.196 254.199 187.443C254.315 187.69 254.537 187.909 254.866 188.099ZM262.126 193.715C261.55 193.383 261.167 193.005 260.978 192.582C260.793 192.157 260.803 191.728 261.009 191.296C261.218 190.866 261.628 190.475 262.237 190.124L265.07 188.488C265.716 188.115 266.417 187.865 267.175 187.736C267.936 187.61 268.691 187.607 269.44 187.726C270.193 187.847 270.882 188.088 271.507 188.449C271.976 188.72 272.328 189.025 272.563 189.365C272.797 189.704 272.89 190.062 272.841 190.437L271.014 190.401C271.063 190.178 271.024 189.956 270.896 189.735C270.777 189.514 270.573 189.321 270.285 189.154C269.915 188.941 269.501 188.804 269.045 188.745C268.592 188.683 268.144 188.688 267.699 188.759C267.259 188.832 266.876 188.963 266.551 189.151L264.922 190.091L264.953 189.781C265.541 189.736 266.121 189.767 266.693 189.874C267.265 189.981 267.767 190.159 268.199 190.409C268.751 190.727 269.113 191.086 269.285 191.485C269.466 191.884 269.46 192.282 269.267 192.678C269.078 193.077 268.707 193.436 268.156 193.754C267.6 194.075 266.956 194.285 266.224 194.385C265.5 194.485 264.772 194.478 264.039 194.364C263.315 194.25 262.677 194.034 262.126 193.715ZM263.366 192.999C263.687 193.184 264.058 193.308 264.477 193.37C264.897 193.431 265.317 193.431 265.736 193.37C266.156 193.308 266.526 193.184 266.847 192.999C267.168 192.814 267.382 192.6 267.489 192.358C267.6 192.118 267.602 191.877 267.496 191.634C267.389 191.392 267.175 191.178 266.854 190.993C266.533 190.808 266.16 190.683 265.736 190.619C265.317 190.557 264.897 190.557 264.477 190.619C264.058 190.681 263.687 190.804 263.366 190.989C263.05 191.172 262.838 191.385 262.731 191.627C262.624 191.87 262.622 192.113 262.724 192.358C262.831 192.6 263.045 192.814 263.366 192.999ZM278.674 192.793L279.977 193.545L268.719 197.308L267.416 196.556L278.674 192.793ZM273.076 199.816L274.23 199.157L281.569 199.388C282.157 199.41 282.632 199.38 282.994 199.299C283.361 199.221 283.669 199.109 283.92 198.964C284.237 198.781 284.451 198.577 284.562 198.351C284.677 198.123 284.686 197.895 284.587 197.667C284.488 197.439 284.278 197.233 283.957 197.047C283.628 196.857 283.256 196.732 282.84 196.673C282.433 196.614 282.03 196.616 281.63 196.68C281.231 196.744 280.886 196.863 280.594 197.037L279.273 196.274C279.849 195.941 280.482 195.725 281.174 195.626C281.873 195.526 282.573 195.538 283.272 195.661C283.976 195.782 284.622 196.013 285.21 196.352C285.77 196.675 286.144 197.039 286.334 197.443C286.527 197.844 286.531 198.246 286.346 198.647C286.165 199.051 285.793 199.416 285.229 199.741C284.821 199.976 284.422 200.145 284.031 200.247C283.641 200.349 283.217 200.408 282.76 200.425C282.303 200.442 281.772 200.439 281.168 200.418L275.514 200.233L275.742 199.937L280.316 202.577L279.088 203.286L273.076 199.816ZM284.703 206.535L286.252 205.641L282.24 203.325L283.462 202.619L292.467 200.756L293.942 201.607L284.937 203.471L287.474 204.935L289.881 203.546L291.19 204.301L288.782 205.691L289.665 206.2L288.443 206.906L287.56 206.396L286.011 207.291L284.703 206.535Z" fill="white"/>
<path d="M205.129 35.3229L202.814 33.9867L218.999 29.5092L221.676 31.0546L213.925 40.4011L211.611 39.0649L217.929 31.726L217.836 31.672L205.129 35.3229ZM209.898 32.6573L216.211 36.3015L214.469 37.307L208.157 33.6628L209.898 32.6573ZM215.502 41.3113L227.472 34.4009L231.961 36.9923C232.881 37.5232 233.481 38.0676 233.761 38.6255C234.046 39.1856 234.048 39.7311 233.767 40.2619C233.494 40.7928 232.978 41.2776 232.218 41.7162C231.451 42.1594 230.607 42.4597 229.688 42.6171C228.768 42.7746 227.821 42.7701 226.847 42.6036C225.877 42.4349 224.93 42.084 224.006 41.5509L221.031 39.8334L222.814 38.8043L225.497 40.353C226.035 40.6635 226.568 40.8637 227.098 40.9537C227.628 41.0436 228.139 41.0414 228.63 40.9469C229.124 40.8547 229.584 40.686 230.009 40.4408C230.434 40.1956 230.724 39.9313 230.88 39.6478C231.04 39.3667 231.036 39.0742 230.868 38.7705C230.708 38.4669 230.358 38.1587 229.816 37.846L227.829 36.6988L217.671 42.5632L215.502 41.3113ZM226.094 47.4262L238.065 40.5159L245.85 45.0103L244.032 46.0597L238.415 42.8171L235.166 44.6931L240.379 47.7029L238.561 48.7523L233.348 45.7425L230.081 47.6287L235.744 50.8983L233.926 51.9477L226.094 47.4262ZM249.874 47.3335L248.126 51.3859L248.22 51.4399L255.251 50.4377L257.724 51.865L248.05 53.1911L245.812 58.8092L243.299 57.3582L244.988 53.3058L244.894 53.2518L237.875 54.227L235.373 52.7828L245.14 51.5107L247.39 45.8994L249.874 47.3335ZM251.538 62.115L263.509 55.2047L268.091 57.85C268.956 58.3494 269.538 58.8432 269.838 59.3313C270.146 59.8195 270.209 60.2806 270.026 60.7147C269.846 61.1511 269.461 61.5403 268.868 61.8822C268.381 62.1634 267.871 62.3501 267.337 62.4423C266.807 62.5323 266.277 62.5481 265.747 62.4896C265.217 62.4311 264.711 62.3164 264.227 62.1454L264.111 62.2129C264.512 62.4716 264.789 62.782 264.941 63.1442C265.1 63.5063 265.091 63.8831 264.911 64.2745C264.732 64.6659 264.339 65.0371 263.731 65.388C263.111 65.7457 262.404 65.9808 261.609 66.0932C260.818 66.2035 259.978 66.1663 259.09 65.9819C258.201 65.7974 257.299 65.4409 256.384 64.9123L251.538 62.115ZM255.519 62.3209L257.851 63.6672C258.638 64.1216 259.355 64.3623 260.002 64.3893C260.656 64.4163 261.221 64.2925 261.697 64.0181C262.051 63.8134 262.283 63.5783 262.392 63.3129C262.505 63.0452 262.482 62.7708 262.322 62.4896C262.166 62.2061 261.864 61.9351 261.416 61.6764L259.026 60.2963L255.519 62.3209ZM260.586 59.3954L262.731 60.6338C263.105 60.8497 263.511 61.0049 263.947 61.0994C264.387 61.1916 264.82 61.2141 265.244 61.1669C265.677 61.1196 266.069 60.9948 266.419 60.7923C266.883 60.5247 267.101 60.2097 267.074 59.8476C267.051 59.4877 266.719 59.1232 266.08 58.7543L263.888 57.489L260.586 59.3954ZM263.893 69.2473L261.578 67.9111L277.763 63.4335L280.44 64.9789L272.689 74.3255L270.375 72.9893L276.693 65.6504L276.599 65.5964L263.893 69.2473ZM268.662 66.5817L274.975 70.2258L273.233 71.2313L266.92 67.5872L268.662 66.5817ZM296.073 74.0041L284.103 80.9145L282.174 79.801L284.687 71.8378L284.588 71.7805L276.434 76.4875L274.266 75.2357L286.236 68.3253L288.177 69.4455L285.652 77.4087L285.757 77.4694L293.916 72.759L296.073 74.0041ZM286.466 82.2785L298.436 75.3681L300.604 76.6199L295.104 79.7951L295.25 79.8794L305.42 79.4003L308.068 80.9288L298.068 81.3573L296.139 87.8628L293.532 86.3579L295.092 81.3337L292.199 81.4721L288.634 83.5303L286.466 82.2785Z" fill="white"/>
<g clip-path="url(#clip3_190_80642)">
<path d="M495.3 186.367C493.884 189.418 491.101 192.201 487.232 194.435C483.362 196.668 478.543 198.275 473.257 199.092M488.026 184.967C486.921 187.347 484.751 189.517 481.732 191.26C478.714 193.002 474.955 194.255 470.832 194.893M481.17 183.58C480.351 185.313 478.759 186.895 476.554 188.168C474.348 189.442 471.607 190.361 468.606 190.834M474.139 182.295C473.735 183.436 472.777 184.47 471.374 185.28C469.971 186.09 468.179 186.643 466.203 186.876" stroke="white" stroke-width="3.05435" stroke-linecap="round"/>
</g>
</g>
<rect y="0.593862" width="374.157" height="224.494" rx="23.1621" transform="matrix(0.866044 0.499967 -0.866044 0.499967 218.514 1.29695)" stroke="url(#paint3_linear_190_80642)" stroke-width="1.1878"/>
</g>
<defs>
<filter id="filter0_f_190_80642" x="-9.45068" y="97" width="584.516" height="364.494" filterUnits="userSpaceOnUse" color-interpolation-filters="sRGB">
<feFlood flood-opacity="0" result="BackgroundImageFix"/>
<feBlend mode="normal" in="SourceGraphic" in2="BackgroundImageFix" result="shape"/>
<feGaussianBlur stdDeviation="16" result="effect1_foregroundBlur_190_80642"/>
</filter>
<filter id="filter1_d_190_80642" x="13.0469" y="57.8732" width="558.526" height="338.504" filterUnits="userSpaceOnUse" color-interpolation-filters="sRGB">
<feFlood flood-opacity="0" result="BackgroundImageFix"/>
<feColorMatrix in="SourceAlpha" type="matrix" values="0 0 0 0 0 0 0 0 0 0 0 0 0 0 0 0 0 0 127 0" result="hardAlpha"/>
<feOffset dx="9.50241" dy="11.878"/>
<feGaussianBlur stdDeviation="9.50241"/>
<feColorMatrix type="matrix" values="0 0 0 0 0 0 0 0 0 0 0 0 0 0 0 0 0 0 0.05 0"/>
<feBlend mode="normal" in2="BackgroundImageFix" result="effect1_dropShadow_190_80642"/>
<feBlend mode="normal" in="SourceGraphic" in2="effect1_dropShadow_190_80642" result="shape"/>
</filter>
<filter id="filter2_bd_190_80642" x="8.29571" y="-13.2536" width="563.277" height="345.63" filterUnits="userSpaceOnUse" color-interpolation-filters="sRGB">
<feFlood flood-opacity="0" result="BackgroundImageFix"/>
<feGaussianBlur in="BackgroundImageFix" stdDeviation="7.12681"/>
<feComposite in2="SourceAlpha" operator="in" result="effect1_backgroundBlur_190_80642"/>
<feColorMatrix in="SourceAlpha" type="matrix" values="0 0 0 0 0 0 0 0 0 0 0 0 0 0 0 0 0 0 127 0" result="hardAlpha"/>
<feOffset dx="9.50241" dy="11.878"/>
<feGaussianBlur stdDeviation="9.50241"/>
<feColorMatrix type="matrix" values="0 0 0 0 0 0 0 0 0 0 0 0 0 0 0 0 0 0 0.05 0"/>
<feBlend mode="normal" in2="effect1_backgroundBlur_190_80642" result="effect2_dropShadow_190_80642"/>
<feBlend mode="normal" in="SourceGraphic" in2="effect2_dropShadow_190_80642" result="shape"/>
</filter>
<linearGradient id="paint0_linear_190_80642" x1="-0.00584524" y1="225.681" x2="199.323" y2="-105.836" gradientUnits="userSpaceOnUse">
<stop stop-color="#101828"/>
<stop offset="1" stop-color="#475467"/>
</linearGradient>
<linearGradient id="paint1_linear_190_80642" x1="2.1206e-07" y1="9.52976" x2="366.772" y2="239.364" gradientUnits="userSpaceOnUse">
<stop stop-color="white"/>
<stop offset="1" stop-color="white" stop-opacity="0.2"/>
</linearGradient>
<linearGradient id="paint2_linear_190_80642" x1="18.7522" y1="2.43553e-05" x2="405.444" y2="271.797" gradientUnits="userSpaceOnUse">
<stop stop-color="white" stop-opacity="0.51"/>
<stop offset="1" stop-color="white" stop-opacity="0"/>
</linearGradient>
<linearGradient id="paint3_linear_190_80642" x1="2.1206e-07" y1="9.52976" x2="366.772" y2="239.364" gradientUnits="userSpaceOnUse">
<stop stop-color="white"/>
<stop offset="1" stop-color="white" stop-opacity="0.2"/>
</linearGradient>
<clipPath id="clip0_190_80642">
<rect width="375.345" height="225.682" rx="23.756" transform="matrix(0.866044 0.499967 -0.866044 0.499967 218 65)" fill="white"/>
</clipPath>
<clipPath id="clip1_190_80642">
<rect width="23.756" height="28.5072" fill="white" transform="matrix(0.866044 0.499967 -0.866044 0.499967 481.045 240.611)"/>
</clipPath>
<clipPath id="clip2_190_80642">
<rect width="375.345" height="225.682" rx="23.756" transform="matrix(0.866044 0.499967 -0.866044 0.499967 218 1)" fill="white"/>
</clipPath>
<clipPath id="clip3_190_80642">
<rect width="23.756" height="28.5072" fill="white" transform="matrix(0.866044 0.499967 -0.866044 0.499967 481.045 176.611)"/>
</clipPath>
</defs>
</svg>
