<svg width="21" height="20" viewBox="0 0 21 20" fill="none" xmlns="http://www.w3.org/2000/svg">
<path d="M11 1H15.2C16.8802 1 17.7202 1 18.362 1.32698C18.9265 1.6146 19.3854 2.07354 19.673 2.63803C20 3.27976 20 4.11984 20 5.8V14.2C20 15.8802 20 16.7202 19.673 17.362C19.3854 17.9265 18.9265 18.3854 18.362 18.673C17.7202 19 16.8802 19 15.2 19H6.8C5.11984 19 4.27976 19 3.63803 18.673C3.07354 18.3854 2.6146 17.9265 2.32698 17.362C2 16.7202 2 15.8802 2 14.2V10M7 11V15M15 9V15M11 5V15M1 3H7" stroke="#8D7F6D" stroke-width="2" stroke-linecap="round" stroke-linejoin="round"/>
</svg>
