<svg width="133" height="133" viewBox="0 0 133 133" fill="none" xmlns="http://www.w3.org/2000/svg">
<path d="M133 66.5C133 103.227 103.227 133 66.5 133C29.7731 133 0 103.227 0 66.5C0 29.7731 29.7731 0 66.5 0C103.227 0 133 29.7731 133 66.5ZM33.25 66.5C33.25 84.8635 48.1365 99.75 66.5 99.75C84.8635 99.75 99.75 84.8635 99.75 66.5C99.75 48.1365 84.8635 33.25 66.5 33.25C48.1365 33.25 33.25 48.1365 33.25 66.5Z" fill="#8F9DDE"/>
<path d="M66.5 0C80.5434 1.67466e-07 94.2264 4.44586 105.588 12.7004C116.949 20.9549 125.406 32.5943 129.745 45.9504L98.1226 56.2252C95.9528 49.5471 91.7245 43.7274 86.0439 39.6002C80.3632 35.4729 73.5217 33.25 66.5 33.25V0Z" fill="#8F9DDE"/>
<path d="M129.745 45.9504C133.535 57.6142 134.026 70.0989 131.163 82.0241C128.3 93.9493 122.195 104.851 113.523 113.523C104.851 122.195 93.9494 128.3 82.0241 131.163C70.0989 134.026 57.6142 133.535 45.9504 129.745L56.2252 98.1226C62.0571 100.018 68.2995 100.263 74.2621 98.8313C80.2247 97.3998 85.6753 94.3473 90.0113 90.0113C94.3473 85.6753 97.3998 80.2247 98.8313 74.2621C100.263 68.2994 100.018 62.0571 98.1226 56.2252L129.745 45.9504Z" fill="#8F9DDE"/>
<path d="M45.9504 129.745C32.5943 125.406 20.9549 116.949 12.7004 105.588L39.6002 86.0439C43.7274 91.7245 49.5471 95.9528 56.2252 98.1226L45.9504 129.745Z" fill="#8F9DDE"/>
<path d="M12.7004 105.588C2.75853 91.9039 -1.59552 74.946 0.524374 58.1653L33.5122 62.3327C32.4522 70.723 34.6293 79.202 39.6002 86.0439L12.7004 105.588Z" fill="#8F9DDE"/>
</svg>
