<svg width="20" height="20" viewBox="0 0 20 20" fill="none" xmlns="http://www.w3.org/2000/svg">
<g clip-path="url(#clip0_1_36926)">
<path d="M10 20C15.5228 20 20 15.5228 20 10C20 4.47715 15.5228 0 10 0C4.47715 0 0 4.47715 0 10C0 15.5228 4.47715 20 10 20Z" fill="#F0F0F0"/>
<path d="M19.3782 13.4778C19.7802 12.3945 20.0002 11.2228 20.0002 9.99956C20.0002 8.77636 19.7802 7.60464 19.3782 6.52132H0.622206C0.220253 7.60464 0.000213623 8.77636 0.000213623 9.99956C0.000213623 11.2228 0.220253 12.3945 0.622206 13.4778L10.0002 14.3474L19.3782 13.4778Z" fill="#0052B4"/>
<path d="M10.0003 19.9996C14.2999 19.9996 17.9654 17.2858 19.3783 13.4778H0.622284C2.03521 17.2858 5.70064 19.9996 10.0003 19.9996Z" fill="#D80027"/>
</g>
<defs>
<clipPath id="clip0_1_36926">
<rect width="20" height="20" fill="white"/>
</clipPath>
</defs>
</svg>
