<svg width="32" height="32" viewBox="0 0 32 32" fill="none" xmlns="http://www.w3.org/2000/svg">
<rect width="32" height="32" rx="16" fill="#F2F4F7"/>
<g opacity="0.08">
<rect x="0.25" y="0.25" width="31.5" height="31.5" rx="15.75" stroke="#101828" stroke-width="0.5"/>
</g>
<path d="M7.33514 12.3643V10.8182H15.4587V12.3643H12.3117V21H10.4822V12.3643H7.33514ZM17.0248 21V10.8182H20.9225C21.6583 10.8182 22.2698 10.9342 22.757 11.1662C23.2475 11.3949 23.6138 11.7081 23.8557 12.1058C24.101 12.5036 24.2236 12.9543 24.2236 13.4581C24.2236 13.8724 24.1441 14.227 23.985 14.522C23.8259 14.8137 23.6121 15.0507 23.3437 15.233C23.0752 15.4152 22.7752 15.5462 22.4438 15.6257V15.7251C22.8051 15.745 23.1514 15.8561 23.4829 16.0582C23.8176 16.2571 24.0911 16.5388 24.3032 16.9034C24.5153 17.268 24.6214 17.7088 24.6214 18.2259C24.6214 18.7528 24.4938 19.2268 24.2385 19.6477C23.9833 20.0653 23.5989 20.3951 23.0851 20.6371C22.5714 20.879 21.9251 21 21.1462 21H17.0248ZM18.8692 19.4588H20.8529C21.5224 19.4588 22.0046 19.3312 22.2996 19.076C22.5979 18.8175 22.7471 18.486 22.7471 18.0817C22.7471 17.7801 22.6725 17.5083 22.5233 17.2663C22.3742 17.0211 22.1621 16.8288 21.887 16.6896C21.6119 16.5471 21.2838 16.4759 20.9026 16.4759H18.8692V19.4588ZM18.8692 15.1484H20.6938C21.012 15.1484 21.2987 15.0904 21.5539 14.9744C21.8091 14.8551 22.0096 14.6877 22.1555 14.4723C22.3046 14.2536 22.3792 13.995 22.3792 13.6967C22.3792 13.3023 22.24 12.9775 21.9616 12.7223C21.6865 12.4671 21.2771 12.3395 20.7336 12.3395H18.8692V15.1484Z" fill="#475467"/>
</svg>
